<svg width="25" height="12" viewBox="0 0 25 12" fill="none" xmlns="http://www.w3.org/2000/svg">
<path fill-rule="evenodd" clip-rule="evenodd" d="M19.3333 1.33337H2.66667C1.74619 1.33337 1 2.07957 1 3.00004V9.00004C1 9.92052 1.74619 10.6667 2.66667 10.6667H19.3333C20.2538 10.6667 21 9.92052 21 9.00004V3.00004C21 2.07957 20.2538 1.33337 19.3333 1.33337ZM2.66667 0.333374C1.19391 0.333374 0 1.52728 0 3.00004V9.00004C0 10.4728 1.19391 11.6667 2.66667 11.6667H19.3333C20.8061 11.6667 22 10.4728 22 9.00004V3.00004C22 1.52728 20.8061 0.333374 19.3333 0.333374H2.66667ZM23 8C23.8047 7.66122 24.328 6.87313 24.328 6C24.328 5.12687 23.8047 4.33878 23 4V8ZM3.33333 2.33337C2.59695 2.33337 2 2.93033 2 3.66671V8.33337C2 9.06975 2.59695 9.66671 3.33333 9.66671H18.6667C19.403 9.66671 20 9.06975 20 8.33337V3.66671C20 2.93033 19.403 2.33337 18.6667 2.33337H3.33333Z" fill="white"/>
</svg>
