<svg width="435" height="749" viewBox="0 0 435 749" fill="none" xmlns="http://www.w3.org/2000/svg">
<path d="M203.501 281.594C199.753 293.317 196.263 302.961 191.212 312.842C185.478 324.06 177.712 335.619 165.226 350.866L165.172 350.932L165.131 351.005C155.877 367.262 151.531 374.708 145.074 383.338C140.023 390.09 133.684 397.56 122.707 410.497C119.622 414.132 116.171 418.2 112.279 422.804C90.6157 442.481 91.1536 476.245 100.985 506.868C105.921 522.241 113.229 536.937 121.385 548.869C129.525 560.777 138.577 570.028 147.042 574.389L147.257 574.5H147.5H147.828H148.155H148.482H148.809H149.135H149.461H149.787H150.112H150.437H150.761H151.085H151.409H151.732H152.055H152.377H152.699H153.021H153.342H153.663H153.983H154.303H154.622H154.942H155.26H155.579H155.896H156.214H156.531H156.848H157.164H157.48H157.795H158.11H158.425H158.739H159.052H159.366H159.678H159.991H160.303H160.614H160.926H161.236H161.547H161.856H162.166H162.475H162.783H163.091H163.399H163.706H164.013H164.319H164.625H164.931H165.236H165.54H165.845H166.148H166.451H166.754H167.057H167.358H167.66H167.961H168.261H168.561H168.861H169.16H169.459H169.757H170.055H170.352H170.649H170.946H171.242H171.537H171.832H172.127H172.421H172.714H173.007H173.3H173.592H173.884H174.175H174.466H174.756H175.046H175.336H175.625H175.913H176.201H176.488H176.775H177.062H177.348H177.633H177.918H178.203H178.487H178.771H179.054H179.336H179.618H179.9H180.181H180.462H180.742H181.021H181.3H181.579H181.857H182.135H182.412H182.689H182.965H183.24H183.515H183.79H184.064H184.338H184.611H184.883H185.155H185.427H185.698H185.969H186.239H186.508H186.777H187.046H187.313H187.581H187.848H188.114H188.38H188.645H188.91H189.174H189.438H189.701H189.964H190.226H190.488H190.749H191.01H191.27H191.529H191.788H192.046H192.304H192.562H192.819H193.075H193.331H193.586H193.84H194.094H194.348H194.601H194.853H195.105H195.357H195.608H195.858H196.108H196.357H196.605H196.853H197.101H197.348H197.594H197.84H198.085H198.33H198.574H198.818H199.061H199.303H199.545H199.786H200.027H200.267H200.507H200.746H200.984H201.222H201.459H201.696H201.932H202.168H202.403H202.637H202.871H203.104H203.337H203.569H203.801H204.032H204.262H204.492H204.721H204.949H205.177H205.405H205.632H205.858H206.084H206.309H206.533H206.757H206.98H207.203H207.425H207.646H207.867H208.087H208.307H208.526H208.744H208.962H209.179H209.396H209.612H209.827H210.042H210.256H210.47H210.683H210.895H211.107H211.318H211.528H211.738H211.947H212.156H212.364H212.571H212.778H212.984H213.19H213.394H213.599H213.802H214.005H214.208H214.409H214.61H214.811H215.011H215.21H215.408H215.606H215.803H216H216.196H216.391H216.586H216.78H216.973H217.166H217.358H217.55H217.74H217.931H218.12H218.309H218.497H218.685H218.872H219.058H219.243H219.428H219.613H219.796H219.979H220.161H220.343H220.524H220.704H220.884H221.063H221.241H221.419H221.596H221.772H221.948H222.123H222.297H222.471H222.643H222.816H222.987H223.158H223.328H223.498H223.667H223.835H224.002H224.169H224.335H224.501H224.665H224.829H224.993H225.156H225.318H225.479H225.639H225.799H225.958H226.117H226.275H226.432H226.588H226.744H226.899H227.053H227.207H227.36H227.512H227.664H227.814H227.964H228.114H228.263H228.41H228.558H228.704H228.85H228.995H229.14H229.283H229.426H229.568H229.71H229.851H229.991H230.13H230.269H230.407H230.544H230.68H230.816H230.951H231.085H231.219H231.352H231.484H231.615H231.746H231.875H232.005H232.133H232.261H232.388H232.514H232.639H232.764H232.888H233.011H233.133H233.255H233.376H233.496H233.616H233.735H233.853H233.97H234.086H234.202H234.317H234.431H234.544H234.657H234.769H234.88H234.991H235.1H235.209H235.317H235.425H235.531H235.637H235.742H235.846H235.95H236.053H236.155H236.256H236.356H236.456H236.555H236.653H236.75H236.847H236.942H237.037H237.132H237.225H237.318H237.41H237.501H237.591H237.68H237.769H237.857H237.944H238.03H238.116H238.201H238.285H238.368H238.45H238.532H238.613H238.692H238.772H238.85H238.928H239.004H239.08H239.155H239.23H239.303H239.376H239.448H239.519H239.589H239.659H239.727H239.795H239.862H239.929H239.994H240.059H240.122H240.185H240.247H240.309H240.369H240.429H240.488H240.546H240.603H240.659H240.715H240.77H240.823H240.876H240.929H240.98H241.031H241.08H241.129H241.177H241.224H241.271H241.316H241.361H241.405H241.448H241.49H241.531H241.572H241.611H241.65H241.688H241.725H241.761H241.796H241.831H241.865H241.897H241.929H241.96H241.99H242.02H242.048H242.076H242.103H242.129H242.154H242.178H242.201H242.224H242.245H242.266H242.286H242.305H242.323H242.34H242.356H242.372H242.386H242.4H242.413H242.425H242.436H242.446H242.456H242.464H242.472H242.478H242.484H242.489H242.493H242.496H242.498H242.5H243.273L243.468 573.752C261.415 504.706 287.158 474.072 310.436 449.583C312.4 447.516 314.349 445.492 316.275 443.491C337.233 421.719 355.554 402.686 362.983 361.678L362.985 361.67L362.986 361.663C372.411 304.442 375.139 262.131 368.67 224.61C362.197 187.062 346.529 154.392 319.312 116.417L319.293 116.391L319.272 116.365C302.954 96.4995 286.861 84.0166 265.482 76.4551C244.261 68.9491 217.902 66.3189 181.088 66.0048C175.391 55.681 174.915 43.6273 174.499 20.9817L174.496 20.8157L174.44 20.6596C172.492 15.2778 170.042 11.437 165.878 8.46369C161.762 5.52444 156.053 3.49361 147.73 1.5268L147.351 1.43745L147.012 1.62681L147.5 2.5C147.012 1.62681 147.011 1.62729 147.01 1.62782L147.008 1.62906L147.003 1.63226L146.986 1.64158C146.973 1.64909 146.956 1.65922 146.934 1.67205C146.892 1.69771 146.832 1.73415 146.757 1.78201C146.608 1.87771 146.397 2.01908 146.137 2.21108C145.616 2.59509 144.894 3.18167 144.059 4.01046C142.388 5.66921 140.266 8.29343 138.386 12.195C134.622 20.0074 131.869 32.8538 135.515 53.1766C137.308 63.1703 136.585 69.3032 134.288 73.4965C131.995 77.6835 128.025 80.1424 122.768 82.5364C121.23 83.2369 119.592 83.9266 117.874 84.65C107.889 88.8551 95.206 94.1959 83.7022 109.397C70.2785 127.134 62.4827 152.578 54.3228 179.32L54.2013 179.718C46.053 206.422 37.4959 234.467 22.6541 257.966C7.62186 281.767 0.741315 299.942 1.1228 316.164C1.50519 332.424 9.17686 346.518 22.7442 362.155L22.7674 362.182L22.7925 362.207L23.4995 361.5C22.7925 362.207 22.7928 362.208 22.7932 362.208L22.7941 362.209L22.7961 362.211L22.8014 362.216L22.817 362.231C22.8296 362.243 22.8468 362.26 22.8685 362.28C22.8837 362.294 22.9011 362.311 22.9208 362.329C22.9573 362.362 23.0014 362.402 23.0533 362.447C23.2131 362.587 23.4465 362.782 23.7556 363.016C24.3737 363.484 25.2946 364.108 26.534 364.76C28.9359 366.024 32.5259 367.391 37.4129 367.943C40.7941 373.176 45.5138 376.219 51.258 377.12C57.1106 378.037 63.9371 376.718 71.4042 373.414L71.6114 373.323L71.7588 373.151L70.9996 372.5C71.7588 373.151 71.759 373.151 71.7593 373.15L71.7601 373.149L71.763 373.146L71.7737 373.133L71.8143 373.086C71.8498 373.044 71.9019 372.982 71.9699 372.901C72.1057 372.739 72.3047 372.499 72.5593 372.187C73.0687 371.563 73.8012 370.65 74.6981 369.485C76.4916 367.157 78.9443 363.824 81.5858 359.799C86.8082 351.841 92.8054 341.123 95.8739 330.091C121.847 310.378 144.223 304.319 162.741 299.721C163.542 299.521 164.338 299.325 165.126 299.13C180.731 295.276 193.737 292.063 203.501 281.594ZM58.6786 126.57L59.5445 127.817L60.3483 126.529C69.3375 112.129 77.1776 101.982 86.4635 93.6254C95.7491 85.2689 106.525 78.6624 121.438 71.3988L121.486 71.3756L121.53 71.3475C123.031 70.4084 124.343 69.2649 125.395 67.4944C126.435 65.7434 127.183 63.4413 127.67 60.2384C128.638 53.858 128.602 43.6343 127.498 26.4357L127.44 25.5331L126.536 25.5004C118.184 25.1982 109.626 27.8715 91.1373 35.0679L91.0279 35.1105L90.9313 35.1772C71.1991 48.8209 59.4113 58.5228 33.7316 89.3598L33.2444 89.9449L33.6786 90.5702L58.6786 126.57ZM186.353 20.0109L185.592 20.1243L185.506 20.8888C185.25 23.1738 184.962 25.2684 184.685 27.2798C184.473 28.8212 184.267 30.3137 184.088 31.8056C183.685 35.1675 183.445 38.3378 183.686 41.4372C184.174 47.7082 186.62 53.5555 193.294 60.2082L193.63 60.5428L194.101 60.4949C238.199 56.0108 282.673 62.6575 317.783 92.4936C352.894 122.33 378.834 175.521 385.501 264.553C386.518 299.411 386.514 323.581 383.522 345.518C380.533 367.438 374.556 387.165 363.579 413.111C354.992 433.407 342.288 448.686 328.68 465.052C324.967 469.518 321.187 474.064 317.405 478.815C299.785 500.951 282.322 527.331 272.028 570.268L273.78 571.127C283.653 558.826 293.262 547.069 302.549 535.705C379.26 441.846 434 374.869 434 250.5V250.443L433.993 250.386C427.99 197.858 415.079 132.989 379.153 84.8812C361.175 60.8077 337.432 40.9282 305.924 28.9019C274.422 16.8777 235.219 12.7274 186.353 20.0109ZM195.496 748C234.708 748 266.496 716.212 266.496 677C266.496 637.788 234.708 606 195.496 606C156.284 606 124.496 637.788 124.496 677C124.496 716.212 156.284 748 195.496 748Z" fill="#F7F6F4" stroke="black" stroke-width="2"/>
</svg>
