<svg width="791" height="1608" viewBox="0 0 791 1608" fill="none" xmlns="http://www.w3.org/2000/svg">
<path d="M5 192C5 124.794 5 91.1906 18.0792 65.5211C29.584 42.9417 47.9417 24.584 70.5211 13.0792C96.1906 0 129.794 0 197 0H594C661.206 0 694.809 0 720.479 13.0792C743.058 24.584 761.416 42.9417 772.921 65.5211C786 91.1906 786 124.794 786 192V449H789C790.105 449 791 449.895 791 451V621C791 622.105 790.105 623 789 623H786V1416C786 1483.21 786 1516.81 772.921 1542.48C761.416 1565.06 743.058 1583.42 720.479 1594.92C694.809 1608 661.206 1608 594 1608H197C129.794 1608 96.1906 1608 70.5211 1594.92C47.9417 1583.42 29.584 1565.06 18.0792 1542.48C5 1516.81 5 1483.21 5 1416V661H2C0.89543 661 0 660.105 0 659V551C0 549.895 0.895431 549 2 549H5V524H2C0.89543 524 0 523.105 0 522V414C0 412.895 0.895431 412 2 412H5V365H2C0.89543 365 0 364.105 0 363V309C0 307.895 0.895431 307 2 307H5V192Z" fill="#353432"/>
</svg>
