<svg width="8" height="10" viewBox="0 0 8 10" fill="none" xmlns="http://www.w3.org/2000/svg">
<path d="M1.85156 9.06445H6.27051C6.87598 9.06445 7.17383 8.7666 7.17383 8.10742V4.69434C7.17383 4.10352 6.92969 3.80078 6.42676 3.75195V2.59473C6.42676 0.851562 5.27441 0.00683594 4.06348 0.00683594C2.84766 0.00683594 1.69531 0.851562 1.69531 2.59473V3.77148C1.23145 3.84473 0.948242 4.14258 0.948242 4.69434V8.10742C0.948242 8.7666 1.24609 9.06445 1.85156 9.06445ZM2.48633 2.50195C2.48633 1.36914 3.20898 0.763672 4.06348 0.763672C4.91309 0.763672 5.63574 1.36914 5.63574 2.50195V3.74219L2.48633 3.75195V2.50195Z" fill="#83E576"/>
</svg>
