<svg width="710" height="1535" viewBox="0 0 710 1535" fill="none" xmlns="http://www.w3.org/2000/svg">
<mask id="mask0" mask-type="alpha" maskUnits="userSpaceOnUse" x="0" y="0" width="710" height="1535">
<path d="M9.80941 49.1409C0 68.3929 0 93.5953 0 144V1391C0 1441.4 0 1466.61 9.80941 1485.86C18.438 1502.79 32.2063 1516.56 49.1409 1525.19C68.3929 1535 93.5953 1535 144 1535H566C616.405 1535 641.607 1535 660.859 1525.19C677.794 1516.56 691.562 1502.79 700.191 1485.86C710 1466.61 710 1441.4 710 1391V144C710 93.5953 710 68.3929 700.191 49.1409C691.562 32.2063 677.794 18.438 660.859 9.80941C641.607 0 616.405 0 566 0H533.778C532.122 0 531.295 0 530.632 0.241229C529.521 0.645624 528.646 1.52085 528.241 2.63192C528 3.29469 528 4.12239 528 5.77778C528 19.0209 528 25.6425 526.07 30.9446C522.835 39.8332 515.833 46.835 506.945 50.0702C501.642 52 495.021 52 481.778 52H228.222C214.979 52 208.358 52 203.055 50.0702C194.167 46.835 187.165 39.8332 183.93 30.9446C182 25.6425 182 19.0209 182 5.77778C182 4.12239 182 3.29469 181.759 2.63192C181.354 1.52085 180.479 0.645624 179.368 0.241229C178.705 0 177.878 0 176.222 0H144C93.5953 0 68.3929 0 49.1409 9.80941C32.2063 18.438 18.438 32.2063 9.80941 49.1409Z" fill="#161616"/>
</mask>
<g mask="url(#mask0)">
<rect y="-1" width="711" height="1537" fill="#CE1112"/>
</g>
</svg>
