<svg width="129" height="81" viewBox="0 0 129 81" fill="none" xmlns="http://www.w3.org/2000/svg">
<path d="M33.8745 59.5977C33.8331 59.5977 33.7912 59.5977 33.7498 59.5977H33.9966C33.9559 59.5977 33.9152 59.5977 33.8745 59.5977ZM56.795 56.4638C59.9041 55.4832 63.2132 55.3609 66.4744 55.2686C75.5994 55.0105 84.7925 54.9307 93.8358 53.5939C84.7925 54.9307 75.5994 55.0105 66.4744 55.2686C63.2132 55.3609 59.9044 55.4832 56.795 56.4638ZM97.297 53.0166C99.386 52.6268 109.988 51.2052 105.46 48.2612C104.54 47.6626 103.109 47.4383 101.466 47.4371H101.441C97.5965 47.4397 92.6007 48.6562 90.2489 49.1496C89.7528 49.2538 89.2583 49.3657 88.7648 49.4823C89.2583 49.3657 89.7528 49.2538 90.2489 49.1496C92.6034 48.6557 97.6075 47.4371 101.454 47.4371C103.102 47.4371 104.537 47.661 105.46 48.2612C109.988 51.2052 99.386 52.6268 97.297 53.0166ZM71.0569 52.117C66.0678 52.117 61.0695 51.6153 56.0696 51.1133C54.8493 50.991 53.6283 50.8685 52.408 50.7533C53.6283 50.8685 54.8493 50.991 56.0696 51.1133C61.0695 51.6153 66.0678 52.117 71.0572 52.117H71.0569Z" fill="url(#paint0_linear)" style="mix-blend-mode:color-dodge"/>
<path d="M77.4239 81C77.4077 81 77.3915 81 77.3753 80.9998H77.4722C79.2146 80.987 80.9596 80.2709 82.1383 78.9914C80.9489 80.2827 79.1822 81 77.4239 81ZM64.0554 79.1095C65.2112 79.1095 66.367 79.0455 67.5197 78.897C66.367 79.0455 65.2112 79.1095 64.0554 79.1095ZM68.0116 78.8287C69.7844 78.5662 71.6023 78.1405 73.3635 78.1405H73.3637C71.6023 78.1405 69.7844 78.5662 68.0116 78.8287ZM90.4548 77.5979C90.4548 77.5731 90.4543 77.5481 90.4536 77.5231C90.4003 76.0167 88.8043 75.0534 87.3388 74.6541C85.8735 74.2549 84.2301 74.0726 83.1627 72.9999C82.0521 71.8839 81.9247 70.1699 81.6983 68.6182C81.5986 67.9338 81.4669 67.254 81.3048 66.5813V66.5816C81.4672 67.254 81.5986 67.9338 81.6983 68.6182C81.9247 70.1699 82.0521 71.8839 83.1627 72.9999C84.2301 74.0726 85.8735 74.2549 87.3388 74.6541C88.8043 75.0534 90.4003 76.0167 90.4536 77.5231C90.4543 77.5481 90.4548 77.5731 90.4548 77.5979ZM44.3707 74.3061C44.3699 74.1427 44.3773 73.9798 44.3921 73.8185C44.4944 72.7013 44.9125 71.6395 45.326 70.5952C46.6618 67.2231 47.3572 60.6793 51.1157 59.0755C52.5036 58.4833 54.1394 58.4184 55.7432 58.4184C55.9684 58.4184 56.1929 58.4198 56.416 58.421C56.6393 58.4221 56.8611 58.4236 57.0809 58.4236C56.8611 58.4236 56.6393 58.4221 56.416 58.421C56.1929 58.4198 55.9684 58.4184 55.7432 58.4184C54.1394 58.4184 52.5036 58.4833 51.1157 59.0755C47.3572 60.6793 46.6618 67.2231 45.326 70.5952C44.9125 71.6395 44.4944 72.7013 44.3921 73.8185C44.3785 73.9675 44.3711 74.1179 44.3707 74.2685V74.3061ZM80.941 65.2523C80.7235 64.5425 80.4711 63.8434 80.185 63.158C79.3332 61.1192 78.0752 59.1035 76.0862 58.1147C74.8061 57.4782 73.3594 57.3325 71.9132 57.3325C73.3594 57.3325 74.8061 57.4782 76.0862 58.1147C78.0752 59.1035 79.3332 61.1192 80.185 63.158C80.4711 63.8432 80.7235 64.5425 80.941 65.252V65.2523Z" fill="url(#paint1_linear)" style="mix-blend-mode:color-dodge"/>
<path d="M124.873 69.2974C125.976 69.2974 127.062 69.1873 128.109 68.8329C128.291 67.1034 126.786 65.5718 125.12 65.0299C124.186 64.7261 123.209 64.65 122.222 64.65C123.209 64.65 124.186 64.7261 125.12 65.0299C126.786 65.5718 128.291 67.1034 128.109 68.8329C127.062 69.1873 125.976 69.2974 124.873 69.2974ZM119.01 64.7289C113.121 64.7289 107.328 63.227 101.499 62.3116C99.2272 61.9549 97.0587 61.7891 94.9092 61.7891C97.0587 61.7891 99.2272 61.9549 101.499 62.3116C107.328 63.227 113.121 64.7289 119.01 64.7289C119.306 64.7289 119.602 64.7251 119.899 64.7173C119.941 64.7162 119.983 64.715 120.025 64.7136C119.983 64.715 119.941 64.7162 119.899 64.7173C119.602 64.7251 119.306 64.7289 119.01 64.7289Z" fill="url(#paint2_linear)" style="mix-blend-mode:color-dodge"/>
<path d="M63.4752 49.1862C67.5714 49.0301 71.5815 48.0618 75.5572 47.0985C76.7708 46.8043 77.9845 46.5101 79.1981 46.2162C80.7027 45.8516 82.2563 45.4644 83.4754 44.5384C84.6948 43.6121 85.4914 41.9901 84.9502 40.5843C78.798 43.083 72.0777 43.9913 65.4147 44.3856C59.3917 44.7421 53.3325 44.6201 47.3202 45.1301C45.2991 45.3015 45.0617 45.9458 46.772 47.1254C48.7182 48.4679 50.959 48.3659 53.238 48.5702C56.6421 48.8757 60.049 49.3167 63.4752 49.1862Z" fill="url(#paint3_linear)" style="mix-blend-mode:color-dodge"/>
<path d="M52.5686 47.4939C54.3383 46.8347 56.1155 45.9936 58.0124 46.0354C58.9806 46.0564 59.925 46.3096 60.8744 46.4956C64.9534 47.2953 69.2221 46.859 73.1997 45.6815C77.1775 44.5038 80.8896 42.6067 84.4165 40.4758C84.7329 40.2845 85.0809 40.0416 85.1145 39.6822C85.1793 38.985 84.1427 38.7938 83.425 38.888C76.5073 39.7974 69.4823 41.9789 62.6913 40.4042C61.121 40.0402 59.6045 39.4806 58.0331 39.1222C54.406 38.2953 50.5165 38.5848 47.065 39.9384C46.1051 40.3148 45.1615 40.783 44.4313 41.4929C42.8353 43.0449 42.1709 46.9008 43.8685 48.6704C45.4519 50.3206 50.6745 48.1998 52.5686 47.4939Z" fill="url(#paint4_linear)" style="mix-blend-mode:color-dodge"/>
<path d="M59.0606 38.1771C58.5692 37.9768 58.0183 38.0038 57.4872 38.0172C55.9917 38.0555 54.5081 37.9532 53.0487 37.727C52.4626 37.4458 51.8318 37.239 51.1833 37.1198C49.8456 36.874 48.5113 36.5394 47.2174 36.101C45.2167 35.2831 43.3112 34.2218 41.5465 32.9442C37.144 29.7572 35.5413 24.3931 32.6515 20.014C32.3505 19.5583 32.0153 19.0936 31.5247 18.8488C30.956 18.5652 30.2844 18.6259 29.6478 18.6389C27.9126 18.6748 26.1721 18.2899 24.608 17.5464C23.2934 16.9214 21.5341 14.774 20.0638 15.2625C17.712 16.044 17.4678 19.9292 17.8687 21.8004C19.148 27.7725 20.0186 35.951 24.2183 40.6692C25.0677 41.6235 26.0761 42.4523 26.7582 43.5303C27.4402 44.6086 27.7362 46.0614 27.0503 47.1374C26.1423 48.562 24.1314 48.6251 22.5002 49.0982C22.08 49.2203 21.6105 49.446 21.5313 49.8732C21.4975 50.0552 21.5446 50.2424 21.6039 50.4183C22.16 52.069 23.7793 53.1905 25.4762 53.6341C26.5861 53.9245 27.679 53.9 28.776 53.8757C29.3433 53.8631 29.9116 53.8504 30.4841 53.8813C32.4712 53.9883 34.4774 54.4647 36.4707 54.6303C37.9229 54.7509 39.427 54.8217 40.7956 54.3252C41.6703 54.0081 42.4509 53.4717 43.3255 53.1536C44.772 52.6278 46.3601 52.7345 47.899 52.6606C49.4376 52.5867 51.0938 52.2586 52.1191 51.1184C52.7509 50.4157 53.0599 49.4942 53.4863 48.6534C54.23 47.186 55.358 45.9226 55.9893 44.4044L55.9938 44.3933C57.2625 43.0118 58.4473 41.5546 59.5376 40.031C59.6769 39.8367 59.8176 39.6334 59.8633 39.3996C59.9643 38.8823 59.5522 38.3773 59.0606 38.1771Z" fill="url(#paint5_linear)" style="mix-blend-mode:color-dodge"/>
<path d="M24.4222 4.45254C24.6572 3.9357 24.9472 3.41815 25.4114 3.08689C26.2941 2.45719 27.5135 2.67606 28.5522 2.99599C29.7937 3.37801 31.0637 3.91091 31.8505 4.93727C32.7568 6.11947 32.8456 7.7139 32.8276 9.19879C32.8061 10.9639 32.6614 12.8075 31.7365 14.3155C29.6454 17.7244 26.2551 16.3356 24.5194 13.5415C22.8644 10.877 23.155 7.24003 24.4222 4.45254Z" fill="url(#paint6_linear)" style="mix-blend-mode:color-dodge"/>
<path d="M16.5942 18.1678C15.4849 19.6418 15.2499 21.5694 15.073 23.4002C14.2231 32.2016 13.8379 41.1466 11.1921 49.5898C11.0297 50.108 10.8405 50.6518 10.421 51.0001C9.92631 51.4107 9.23044 51.4557 8.58624 51.4869C5.48801 51.6373 2.07942 52.0559 0 54.3389C2.65384 54.2024 5.30761 54.0662 7.96156 53.9297C9.12236 53.8702 10.3117 53.8043 11.3802 53.35C12.8828 52.7114 13.9689 51.3802 14.8276 50.0008C19.0249 43.2578 19.0408 34.8382 21.2693 27.2282C22.0416 24.5911 23.2141 21.5082 22.3351 18.7559C21.4455 15.9687 18.2928 15.9111 16.5942 18.1678Z" fill="url(#paint7_linear)" style="mix-blend-mode:color-dodge"/>
<path d="M30.4158 6.91394C31.5954 7.40788 32.735 8.3339 32.8895 9.59448C33.0021 10.5137 32.5684 11.4172 32.5617 12.3433C32.5519 13.6492 33.4949 14.9053 34.759 15.2708C34.8095 11.905 34.8457 8.45029 33.6754 5.29069C32.7874 2.89419 30.981 0.602057 28.4551 0.109534C27.4043 -0.095171 26.3199 0.0273743 25.2563 0.150623C24.3852 0.251678 23.4717 0.368546 22.7611 0.878304C22.0053 1.42088 21.6072 2.3155 21.2425 3.16691C20.5493 4.78637 19.856 6.40536 19.1628 8.02459C19.0795 8.21938 18.9945 8.42149 19.0014 8.63304C19.0111 8.93857 19.2085 9.20348 19.4011 9.44219C20.7614 11.1282 22.3195 12.6573 24.0338 13.9882C23.2413 13.3729 25.2101 10.1054 25.4415 9.47548C26.0542 7.80761 25.3358 6.57749 25.6491 5.03617C27.137 5.74025 28.8334 6.25142 30.4158 6.91394Z" fill="url(#paint8_linear)" style="mix-blend-mode:color-dodge"/>
<path d="M43.3804 72.473C43.6792 73.1445 44.372 73.1284 45.5547 73.2174C49.0073 73.4767 52.4633 73.6903 55.9219 73.8542C62.8391 74.1826 69.7653 74.3177 76.6901 74.2596C77.7188 74.2509 79.4673 74.3767 80.0273 73.3362C81.5354 70.5322 79.9016 66.6463 79.484 63.7705C79.1112 61.2057 78.6877 58.6484 78.2134 56.1C78.1304 55.6531 78.0175 55.161 77.643 54.8992C77.3428 54.6891 76.9486 54.6825 76.5813 54.6836C70.2064 54.7054 63.832 54.7273 57.4574 54.7493C54.7051 54.7587 50.9466 54.0915 48.2977 54.7627C46.3703 55.251 46.2429 60.056 45.8366 61.9319C45.4576 63.681 45.3233 65.822 44.641 67.4727C44.0665 68.8626 43.1833 69.7424 43.2052 71.3857C43.2117 71.8726 43.2683 72.2213 43.3804 72.473Z" fill="url(#paint9_linear)" style="mix-blend-mode:color-dodge"/>
<path d="M43.6253 69.4348C43.583 69.6308 43.5503 69.8643 43.6927 70.0066C43.7944 70.1084 43.9517 70.1259 44.0957 70.1372C54.955 71.0014 65.8526 71.3883 76.7464 71.297C77.721 71.2887 78.7292 71.2696 79.6146 70.8649C79.9731 70.7008 80.319 70.4578 80.4785 70.0997C80.6271 69.7663 80.5937 69.385 80.5566 69.0228C80.0121 63.6997 79.2492 58.3988 78.27 53.1374C78.1869 52.6905 78.0738 52.1984 77.6996 51.9366C77.3992 51.7264 77.0052 51.7198 76.6376 51.721C70.263 51.743 63.8884 51.7647 57.5137 51.7866C54.7615 51.7961 51.0032 51.1288 48.354 51.8001C46.4266 52.2884 46.2993 57.0936 45.8929 58.9693C45.137 62.4575 44.3812 65.9463 43.6253 69.4348Z" fill="url(#paint10_linear)" style="mix-blend-mode:color-dodge"/>
<path d="M78.1269 68.3943C78.0078 67.2336 77.8886 66.0726 77.7695 64.9119C78.504 64.8666 79.2358 64.8099 79.9678 64.7457C80.1471 66.169 80.3073 67.5946 80.4539 69.0197C80.4906 69.3817 80.5239 69.7649 80.3763 70.0961C80.2173 70.4569 79.8704 70.6985 79.5114 70.864C79.1608 71.0245 78.7894 71.1227 78.4106 71.1855C78.3168 70.2543 78.2204 69.3255 78.1269 68.3943Z" fill="url(#paint11_linear)" style="mix-blend-mode:color-dodge"/>
<path d="M79.6092 62.0339C79.7359 62.9364 79.8573 63.8414 79.9677 64.7459C79.2357 64.8101 78.5039 64.8668 77.7694 64.9121C77.6664 63.9079 77.5633 62.9009 77.4602 61.8965C78.1765 61.9371 78.8929 61.9829 79.6092 62.0339Z" fill="url(#paint12_linear)" style="mix-blend-mode:color-dodge"/>
<path d="M79.1623 58.973C79.3194 59.9916 79.471 61.013 79.6091 62.0339C78.8928 61.9829 78.1764 61.9371 77.4601 61.8965C77.3618 60.9249 77.2609 59.9531 77.1599 58.9813C77.8253 58.991 78.4935 58.9929 79.1623 58.973Z" fill="url(#paint13_linear)" style="mix-blend-mode:color-dodge"/>
<path d="M78.6344 55.7487C78.8203 56.8218 78.9953 57.8975 79.1624 58.9729C78.4937 58.9928 77.8254 58.9909 77.16 58.9812C77.0527 57.9095 76.9429 56.835 76.8301 55.7633C77.4307 55.7583 78.0337 55.7536 78.6344 55.7487Z" fill="url(#paint14_linear)" style="mix-blend-mode:color-dodge"/>
<path d="M78.1268 68.3945C78.2203 69.3257 78.3168 70.2545 78.4106 71.1857C77.8328 71.2799 77.2321 71.2903 76.6453 71.2953C75.784 71.3033 74.9227 71.3062 74.0616 71.3062C74.0528 71.1928 74.0468 71.0795 74.0464 70.9638C74.0399 70.1582 74.0309 69.355 74.0164 68.5491C74.9405 68.5177 75.8621 68.4839 76.7865 68.4476C77.2324 68.4287 77.6809 68.4103 78.1268 68.3945Z" fill="url(#paint15_linear)" style="mix-blend-mode:color-dodge"/>
<path d="M76.5024 52.5672C76.4753 52.2839 76.4453 52.0029 76.4155 51.7196C76.4562 51.7203 76.4943 51.7184 76.535 51.7191C76.9019 51.7179 77.2956 51.7253 77.5985 51.9359C77.9713 52.1958 78.0841 52.6884 78.1679 53.1346C78.3305 54.0054 78.4853 54.8757 78.6343 55.7488C78.0336 55.7537 77.4306 55.7585 76.83 55.7634C76.7229 54.6972 76.6126 53.6335 76.5024 52.5672Z" fill="url(#paint16_linear)" style="mix-blend-mode:color-dodge"/>
<path d="M77.7694 64.9121C77.8885 66.0728 78.0077 67.2337 78.1268 68.3944C77.6809 68.4102 77.2323 68.4287 76.7865 68.4475C75.8621 68.4839 74.9405 68.5177 74.0164 68.5491C73.9947 67.398 73.9678 66.247 73.9299 65.0986C75.2105 65.0551 76.491 64.9956 77.7694 64.9121Z" fill="url(#paint17_linear)" style="mix-blend-mode:color-dodge"/>
<path d="M77.4603 61.8965C77.5634 62.9009 77.6665 63.9079 77.7695 64.9121C76.4911 64.9957 75.2106 65.0552 73.9301 65.0986C73.8944 63.98 73.8532 62.8608 73.8013 61.7445C75.0202 61.7808 76.2419 61.8307 77.4603 61.8965Z" fill="url(#paint18_linear)" style="mix-blend-mode:color-dodge"/>
<path d="M77.16 58.9813C77.2609 59.9531 77.3619 60.9249 77.4602 61.8965C76.2418 61.8306 75.02 61.7808 73.8011 61.7444C73.7571 60.779 73.7076 59.8164 73.6526 58.8535C74.8196 58.913 75.9894 58.9645 77.16 58.9813Z" fill="url(#paint19_linear)" style="mix-blend-mode:color-dodge"/>
<path d="M76.83 55.7633C76.9429 56.835 77.0526 57.9095 77.16 58.9812C75.9894 58.9644 74.8196 58.913 73.6526 58.8535C73.5931 57.8337 73.5257 56.814 73.4526 55.7942C74.5803 55.7831 75.7052 55.7746 76.83 55.7633Z" fill="url(#paint20_linear)" style="mix-blend-mode:color-dodge"/>
<path d="M76.5025 52.5671C76.6127 53.6333 76.7229 54.697 76.8301 55.7633C75.7052 55.7746 74.5804 55.7831 73.4527 55.7942C73.3781 54.7149 73.2955 53.6385 73.2046 52.5616C74.3049 52.5607 75.4024 52.5626 76.5025 52.5671Z" fill="url(#paint21_linear)" style="mix-blend-mode:color-dodge"/>
<path d="M76.4155 51.7195C76.4452 52.0028 76.4752 52.2838 76.5024 52.5671C75.4023 52.5627 74.3048 52.5608 73.2045 52.5617C73.18 52.284 73.1581 52.0085 73.1335 51.7306C74.2284 51.7268 75.3206 51.7233 76.4155 51.7195Z" fill="url(#paint22_linear)" style="mix-blend-mode:color-dodge"/>
<path d="M74.0463 70.9638C74.0468 71.0795 74.0528 71.1929 74.0616 71.3062C72.2249 71.3121 70.3914 71.2993 68.5554 71.2757C68.5692 70.4111 68.6209 69.5498 68.6973 68.6863C70.4716 68.6658 72.2437 68.6129 74.0164 68.5491C74.0309 69.355 74.0399 70.1582 74.0463 70.9638Z" fill="url(#paint23_linear)" style="mix-blend-mode:color-dodge"/>
<path d="M73.9299 65.0986C73.9678 66.247 73.9947 67.3981 74.0163 68.5491C72.2437 68.6129 70.4716 68.6657 68.6973 68.6863C68.8008 67.5242 68.9453 66.363 69.1113 65.2023C70.7172 65.1839 72.3261 65.1548 73.9299 65.0986Z" fill="url(#paint24_linear)" style="mix-blend-mode:color-dodge"/>
<path d="M73.8012 61.7443C73.8531 62.8607 73.8943 63.9798 73.93 65.0985C72.3261 65.1547 70.7173 65.1837 69.1113 65.2021C69.2751 64.0277 69.4577 62.851 69.627 61.6794C71.0177 61.6841 72.4109 61.7049 73.8012 61.7443Z" fill="url(#paint25_linear)" style="mix-blend-mode:color-dodge"/>
<path d="M73.6526 58.8535C73.7076 59.8163 73.7571 60.7789 73.8012 61.7444C72.4109 61.705 71.0177 61.6842 69.627 61.6795C69.7736 60.6774 69.9095 59.6777 70.0155 58.6773C70.5259 58.6979 71.0334 58.7205 71.5436 58.7465C72.2466 58.7812 72.9496 58.8185 73.6526 58.8535Z" fill="url(#paint26_linear)" style="mix-blend-mode:color-dodge"/>
<path d="M73.4525 55.7943C73.5256 56.814 73.593 57.8338 73.6525 58.8535C72.9495 58.8186 72.2465 58.7813 71.5435 58.7466C71.0333 58.7206 70.5258 58.6979 70.0154 58.6774C70.1206 57.723 70.1985 56.7732 70.2356 55.8228C71.3088 55.8134 72.3822 55.8039 73.4525 55.7943Z" fill="url(#paint27_linear)" style="mix-blend-mode:color-dodge"/>
<path d="M73.4527 55.7942C72.3823 55.8039 71.3089 55.8133 70.2357 55.8228C70.2755 54.735 70.2636 53.6489 70.1729 52.5668C71.1834 52.5614 72.1942 52.5616 73.2046 52.5616C73.2955 53.6385 73.3781 54.7149 73.4527 55.7942Z" fill="url(#paint28_linear)" style="mix-blend-mode:color-dodge"/>
<path d="M73.2047 52.5617C72.1943 52.5617 71.1835 52.5615 70.173 52.5669C70.1537 52.2918 70.1265 52.0165 70.0908 51.741C71.1043 51.7384 72.1203 51.7332 73.1337 51.7306C73.1583 52.0085 73.1802 52.284 73.2047 52.5617Z" fill="url(#paint29_linear)" style="mix-blend-mode:color-dodge"/>
<path d="M70.1727 52.5669C70.2634 53.6489 70.2753 54.735 70.2356 55.8228C68.5808 55.8374 66.9263 55.8523 65.2686 55.8669C65.1946 54.7742 65.0713 53.6862 64.8799 52.6077C66.6435 52.5869 68.4094 52.5742 70.1727 52.5669Z" fill="url(#paint30_linear)" style="mix-blend-mode:color-dodge"/>
<path d="M65.2686 55.8671C66.9262 55.8525 68.5807 55.8376 70.2355 55.8229C70.1984 56.7733 70.1205 57.7231 70.0153 58.6775C68.4681 58.6135 66.9179 58.5682 65.3671 58.5391C65.3597 57.6445 65.3305 56.7546 65.2686 55.8671Z" fill="url(#paint31_linear)" style="mix-blend-mode:color-dodge"/>
<path d="M70.0907 51.7409C70.1264 52.0165 70.1535 52.2918 70.1728 52.5668C68.4095 52.5741 66.6435 52.5869 64.8799 52.6077C64.8311 52.3236 64.7766 52.0427 64.7195 51.7615C66.51 51.7518 68.3004 51.7475 70.0907 51.7409Z" fill="url(#paint32_linear)" style="mix-blend-mode:color-dodge"/>
<path d="M70.0156 58.6774C69.9097 59.6778 69.7737 60.6774 69.6271 61.6795C68.1954 61.6715 66.7637 61.6852 65.3286 61.7095C65.3598 60.6512 65.3772 59.5928 65.3674 58.539C66.9182 58.5681 68.4684 58.6134 70.0156 58.6774Z" fill="url(#paint33_linear)" style="mix-blend-mode:color-dodge"/>
<path d="M69.627 61.6795C69.4577 62.8511 69.2751 64.0278 69.1113 65.2023C67.8072 65.2183 66.5031 65.2261 65.199 65.2339C65.243 64.0574 65.2925 62.8808 65.3285 61.7095C66.7635 61.6852 68.1952 61.6715 69.627 61.6795Z" fill="url(#paint34_linear)" style="mix-blend-mode:color-dodge"/>
<path d="M69.1113 65.2023C68.9454 66.363 68.8009 67.5242 68.6974 68.6863C67.5016 68.7043 66.3089 68.7062 65.114 68.6892C65.1223 67.5389 65.1578 66.3864 65.199 65.234C66.5031 65.2262 67.8072 65.2184 69.1113 65.2023Z" fill="url(#paint35_linear)" style="mix-blend-mode:color-dodge"/>
<path d="M65.1514 71.1389C65.118 70.3248 65.1092 69.5055 65.114 68.6891C66.3088 68.7061 67.5015 68.7042 68.6973 68.6862C68.6209 69.5497 68.5693 70.411 68.5554 71.2756C67.423 71.2598 66.2879 71.2412 65.1554 71.2119C65.1533 71.1876 65.1509 71.163 65.1514 71.1389Z" fill="url(#paint36_linear)" style="mix-blend-mode:color-dodge"/>
<path d="M65.3674 58.5391C65.3772 59.5929 65.3598 60.6513 65.3286 61.7096C63.6981 61.741 62.0645 61.7884 60.4307 61.8494C60.5959 60.7345 60.753 59.6191 60.8911 58.5035C62.3826 58.4992 63.8764 58.5113 65.3674 58.5391Z" fill="url(#paint37_linear)" style="mix-blend-mode:color-dodge"/>
<path d="M65.1514 71.1389C65.1454 71.163 65.1397 71.1873 65.1338 71.2114C63.1895 71.1696 61.2426 71.1116 59.2991 71.0346C59.3534 70.187 59.4319 69.3396 59.524 68.4926C60.6453 68.538 61.7635 68.5965 62.8845 68.6364C63.6285 68.6641 64.3698 68.6806 65.114 68.6891C65.1092 69.5055 65.118 70.3248 65.1514 71.1389Z" fill="url(#paint38_linear)" style="mix-blend-mode:color-dodge"/>
<path d="M65.3285 61.7095C65.2926 62.8809 65.243 64.0574 65.199 65.2339C63.4438 65.2441 61.6859 65.2542 59.9304 65.2781C60.0935 64.136 60.2647 62.9914 60.4306 61.8493C62.0644 61.7884 63.698 61.7409 65.3285 61.7095Z" fill="url(#paint39_linear)" style="mix-blend-mode:color-dodge"/>
<path d="M65.1139 68.689C64.3697 68.6805 63.6284 68.6639 62.8844 68.6363C61.7634 68.5964 60.6452 68.5379 59.5239 68.4925C59.6422 67.4196 59.7822 66.3501 59.9303 65.2779C61.6858 65.2541 63.4436 65.2439 65.1989 65.2338C65.1577 66.3862 65.1222 67.5386 65.1139 68.689Z" fill="url(#paint40_linear)" style="mix-blend-mode:color-dodge"/>
<path d="M65.2686 55.867C65.3305 56.7546 65.3598 57.6444 65.3672 58.5391C63.8762 58.5112 62.3823 58.4992 60.8909 58.5034C60.997 57.6378 61.0923 56.7697 61.1661 55.9006C62.5354 55.8913 63.9021 55.8765 65.2686 55.867Z" fill="url(#paint41_linear)" style="mix-blend-mode:color-dodge"/>
<path d="M65.2686 55.8669C63.9021 55.8763 62.5354 55.8912 61.166 55.9004C61.2598 54.819 61.3212 53.7372 61.3393 52.6544C62.5187 52.6334 63.6981 52.6178 64.8798 52.6076C65.0712 53.6862 65.1945 54.7742 65.2686 55.8669Z" fill="url(#paint42_linear)" style="mix-blend-mode:color-dodge"/>
<path d="M64.7194 51.7616C64.7765 52.0428 64.831 52.3238 64.8798 52.6078C63.6981 52.6179 62.5187 52.6335 61.3394 52.6545C61.3448 52.3611 61.3451 52.0673 61.3424 51.7734C62.4673 51.7677 63.5948 51.7644 64.7194 51.7616Z" fill="url(#paint43_linear)" style="mix-blend-mode:color-dodge"/>
<path d="M61.3394 52.6545C61.3213 53.7373 61.2599 54.8191 61.1661 55.9005C59.6987 55.9161 58.2315 55.9291 56.7617 55.9392C56.9557 54.8729 57.1176 53.8038 57.2167 52.7279C58.5893 52.6972 59.9644 52.6745 61.3394 52.6545Z" fill="url(#paint44_linear)" style="mix-blend-mode:color-dodge"/>
<path d="M61.3424 51.7734C61.3451 52.0674 61.3448 52.3611 61.3393 52.6546C59.9643 52.6747 58.5892 52.6973 57.2166 52.728C57.2499 52.4133 57.2749 52.1014 57.2918 51.7864C57.3325 51.7871 57.3732 51.7853 57.4113 51.786C58.7209 51.781 60.0331 51.7758 61.3424 51.7734Z" fill="url(#paint45_linear)" style="mix-blend-mode:color-dodge"/>
<path d="M56.7617 55.9392C58.2315 55.929 59.6987 55.916 61.1661 55.9005C61.0923 56.7696 60.9971 57.6377 60.8909 58.5033C59.3368 58.5095 57.7799 58.5312 56.2251 58.572C56.4158 57.6972 56.6008 56.8196 56.7617 55.9392Z" fill="url(#paint46_linear)" style="mix-blend-mode:color-dodge"/>
<path d="M60.8909 58.5033C60.7528 59.6189 60.5957 60.7343 60.4305 61.8492C58.7693 61.9096 57.1107 61.9861 55.4492 62.0735C55.697 60.9062 55.9691 59.7396 56.2251 58.572C57.7799 58.5311 59.3368 58.5094 60.8909 58.5033Z" fill="url(#paint47_linear)" style="mix-blend-mode:color-dodge"/>
<path d="M60.4305 61.8493C60.2645 62.9914 60.0934 64.136 59.9303 65.2781C58.2238 65.3052 56.5198 65.3461 54.8176 65.4219C54.861 65.1452 54.9043 64.8658 54.9531 64.5891C55.0995 63.7486 55.2676 62.9109 55.4492 62.0736C57.1107 61.9863 58.7693 61.9098 60.4305 61.8493Z" fill="url(#paint48_linear)" style="mix-blend-mode:color-dodge"/>
<path d="M59.9304 65.2781C59.7823 66.3503 59.6423 67.4199 59.524 68.4927C58.6827 68.458 57.8383 68.4342 56.9934 68.4344C56.1321 68.4344 55.2705 68.4613 54.4114 68.502C54.5259 67.4723 54.6571 66.4454 54.8178 65.4219C56.5199 65.3461 58.224 65.3053 59.9304 65.2781Z" fill="url(#paint49_linear)" style="mix-blend-mode:color-dodge"/>
<path d="M59.5241 68.4927C59.432 69.3396 59.3534 70.187 59.2991 71.0347C57.5889 70.9702 55.8815 70.8951 54.1746 70.8038C54.2491 70.0345 54.326 69.2681 54.4114 68.5019C55.2706 68.4613 56.1322 68.4344 56.9935 68.4344C57.8384 68.4342 58.6828 68.458 59.5241 68.4927Z" fill="url(#paint50_linear)" style="mix-blend-mode:color-dodge"/>
<path d="M57.292 51.7864C57.2751 52.1014 57.2501 52.4133 57.2167 52.728C55.7167 52.7563 54.2164 52.7932 52.7188 52.835C52.7542 52.4071 52.7761 51.9739 52.7787 51.5427C54.3531 51.6209 55.939 51.78 57.292 51.7864Z" fill="url(#paint51_linear)" style="mix-blend-mode:color-dodge"/>
<path d="M57.2169 52.728C57.1179 53.804 56.956 54.8731 56.762 55.9393C55.2674 55.9542 53.7731 55.9667 52.2759 55.979C52.4751 54.9347 52.6363 53.8894 52.7189 52.835C54.2166 52.7932 55.7169 52.7564 57.2169 52.728Z" fill="url(#paint52_linear)" style="mix-blend-mode:color-dodge"/>
<path d="M52.2758 55.979C53.7729 55.9667 55.2673 55.9542 56.7618 55.9393C56.6009 56.8198 56.4159 57.6974 56.2252 58.5722C54.7114 58.6088 53.1999 58.6638 51.688 58.7351C51.893 57.8174 52.0979 56.8998 52.2758 55.979Z" fill="url(#paint53_linear)" style="mix-blend-mode:color-dodge"/>
<path d="M56.2252 58.5719C55.9693 59.7395 55.6972 60.9061 55.4493 62.0734C53.9429 62.1506 52.4364 62.2354 50.9294 62.323C50.9754 62.0597 51.0266 61.7993 51.0775 61.5391C51.2639 60.6022 51.4772 59.6684 51.6879 58.7349C53.1999 58.6636 54.7113 58.6085 56.2252 58.5719Z" fill="url(#paint54_linear)" style="mix-blend-mode:color-dodge"/>
<path d="M55.4492 62.0735C55.2676 62.9107 55.0995 63.7484 54.9531 64.589C54.9043 64.8657 54.8609 65.145 54.8176 65.4217C53.3521 65.486 51.889 65.5743 50.4277 65.6975C50.5551 64.5684 50.7234 63.4401 50.9293 62.3231C52.4363 62.2355 53.9427 62.1507 55.4492 62.0735Z" fill="url(#paint55_linear)" style="mix-blend-mode:color-dodge"/>
<path d="M54.8177 65.4219C54.657 66.4454 54.5259 67.4722 54.4114 68.5019C52.9973 68.5668 51.5855 68.6698 50.1741 68.7512C50.2288 67.7308 50.3133 66.7141 50.4278 65.6976C51.8891 65.5744 53.3522 65.4861 54.8177 65.4219Z" fill="url(#paint56_linear)" style="mix-blend-mode:color-dodge"/>
<path d="M50.1475 70.5721L50.1123 70.5714C50.1211 69.9651 50.1435 69.3566 50.1742 68.7512C51.5857 68.6698 52.9974 68.5668 54.4115 68.5019C54.326 69.2681 54.2491 70.0345 54.1746 70.8037C52.8312 70.7355 51.4878 70.6592 50.1475 70.5721Z" fill="url(#paint57_linear)" style="mix-blend-mode:color-dodge"/>
<path d="M52.7788 51.5426C52.7762 51.9737 52.7543 52.407 52.7188 52.8348C51.4823 52.8629 50.2455 52.8988 49.0088 52.9375C49.1014 52.4948 49.1911 52.0519 49.284 51.6092C50.3679 51.4677 51.5685 51.4821 52.7788 51.5426Z" fill="url(#paint58_linear)" style="mix-blend-mode:color-dodge"/>
<path d="M52.7187 52.8349C52.6361 53.8894 52.475 54.9347 52.2757 55.979C50.9771 55.9924 49.6756 56.0028 48.3767 56.0134C48.5864 54.9937 48.7959 53.9711 49.0057 52.9513L49.0088 52.9376C50.2455 52.8989 51.4822 52.863 52.7187 52.8349Z" fill="url(#paint59_linear)" style="mix-blend-mode:color-dodge"/>
<path d="M48.3766 56.0133C49.6754 56.0026 50.9769 55.9923 52.2756 55.9788C52.0977 56.8996 51.8928 57.8171 51.6878 58.7349C50.3882 58.7965 49.0881 58.8721 47.7881 58.958C47.9807 57.9756 48.1785 56.9959 48.3766 56.0133Z" fill="url(#paint60_linear)" style="mix-blend-mode:color-dodge"/>
<path d="M51.6878 58.735C51.4771 59.6685 51.2638 60.6023 51.0774 61.5392C51.0264 61.7994 50.9753 62.0598 50.9293 62.3231C49.6485 62.3986 48.3675 62.477 47.0891 62.5554C47.3157 61.3553 47.5479 60.1551 47.7881 58.9581C49.0881 58.8721 50.3882 58.7966 51.6878 58.735Z" fill="url(#paint61_linear)" style="mix-blend-mode:color-dodge"/>
<path d="M50.9293 62.323C50.7234 63.44 50.5551 64.5684 50.4277 65.6975C49.0998 65.8101 47.7714 65.9494 46.4478 66.1267C46.6525 64.9344 46.8682 63.7448 47.0891 62.5553C48.3675 62.4769 49.6485 62.3986 50.9293 62.323Z" fill="url(#paint62_linear)" style="mix-blend-mode:color-dodge"/>
<path d="M50.4276 65.6976C50.3131 66.714 50.2286 67.7307 50.1738 68.7512C48.7812 68.8352 47.3892 68.8983 45.9956 68.8936C46.1382 67.9694 46.2889 67.0481 46.4477 66.1268C47.7713 65.9495 49.0997 65.8102 50.4276 65.6976Z" fill="url(#paint63_linear)" style="mix-blend-mode:color-dodge"/>
<path d="M50.1742 68.7511C50.1434 69.3565 50.1211 69.965 50.1123 70.5713C48.6686 70.4794 47.2281 70.3824 45.7876 70.2717C45.8533 69.8124 45.9247 69.3527 45.9959 68.8935C47.3895 68.8982 48.7815 68.8352 50.1742 68.7511Z" fill="url(#paint64_linear)" style="mix-blend-mode:color-dodge"/>
<path d="M49.0088 52.9376L49.0057 52.9513C48.7959 53.971 48.5865 54.9936 48.3767 56.0134C48.1787 56.9961 47.9808 57.9757 47.7882 58.9581C47.548 60.1552 47.3159 61.3553 47.0893 62.5555C46.8683 63.745 46.6527 64.9345 46.4479 66.1268C46.2891 67.0481 46.1384 67.9694 45.9958 68.8936C45.9247 69.3528 45.8532 69.8125 45.7875 70.2717C45.1907 70.2283 44.5913 70.182 43.9944 70.1357C43.8506 70.1251 43.6935 70.106 43.5895 70.0042C43.4481 69.8616 43.4797 69.6279 43.5243 69.4317C44.2782 65.9434 45.0348 62.4551 45.7913 58.9664C46.1965 57.0907 46.3234 52.2864 48.2508 51.7972C48.5784 51.7143 48.9245 51.651 49.284 51.6093C49.1911 52.052 49.1014 52.4949 49.0088 52.9376Z" fill="url(#paint65_linear)" style="mix-blend-mode:color-dodge"/>
<path d="M53.4516 54.1509C53.0924 53.8988 53.0524 53.3276 53.3681 53.0278C53.6837 52.7274 54.2713 52.7657 54.5488 53.0993C54.8267 53.4327 54.7405 53.9835 54.3779 54.23C54.4798 54.2274 54.5719 54.3233 54.561 54.4203C54.5503 54.5176 54.4391 54.5925 54.3401 54.5691C54.4027 55.2888 54.5122 56.0046 54.6679 56.7111C54.6986 56.8504 54.7336 56.9949 54.8267 57.1056C54.9336 57.2331 55.1009 57.2976 55.2338 57.4003C55.339 57.4817 55.4247 57.6319 55.3428 57.7348C54.8393 57.672 54.3334 57.7636 53.8258 57.7542L52.472 57.7289C52.4456 57.6515 52.4403 57.5615 52.4434 57.4801C52.4463 57.3989 52.4853 57.3136 52.5608 57.2763C52.6117 57.251 52.6772 57.248 52.715 57.2064C52.7612 57.1559 52.7474 57.0678 52.8034 57.0275C52.8519 56.9925 52.9217 57.0161 52.9814 57.005C53.0826 56.9861 53.1307 56.8766 53.1602 56.7817C53.2547 56.4766 53.3307 56.1661 53.3869 55.8523C53.4604 55.442 53.513 55.0028 53.4833 54.5873C53.4809 54.5545 53.473 54.5148 53.4407 54.5035L53.3828 54.5046C53.2847 54.5143 53.1955 54.4144 53.2136 54.3214C53.2314 54.2286 53.3562 54.1273 53.4516 54.1509Z" fill="url(#paint66_linear)" style="mix-blend-mode:color-dodge"/>
<path d="M55.779 58.4028C55.7902 58.7346 55.7835 59.0668 55.759 59.3978C55.8102 59.4363 55.8854 59.4403 55.9404 59.4068C55.934 59.6398 55.9463 59.8728 55.977 60.1037C56.0344 60.0414 56.1466 60.0686 56.1984 60.1352C56.2506 60.2022 56.2587 60.2917 56.2644 60.3755C56.3161 61.1344 56.323 61.8958 56.2849 62.6554C56.283 62.6898 56.2808 62.7255 56.2632 62.7548C56.1742 62.9045 55.8978 62.6974 55.774 62.8204C55.779 63.0761 55.7842 63.3316 55.7892 63.5871C55.7899 63.6234 55.7887 63.6647 55.7621 63.6898C55.7404 63.7103 55.708 63.7138 55.679 63.7219C55.4409 63.7882 55.4574 64.1259 55.5259 64.3615C55.5802 64.3813 55.6397 64.3877 55.6942 64.4075L58.9662 64.5242C58.9505 64.3374 58.9378 64.1502 58.9219 63.9634C58.8412 63.9653 58.7605 63.9672 58.6795 63.9691C58.6636 63.5717 58.6476 63.1746 58.6317 62.7774C58.5253 62.7496 58.407 62.7699 58.3163 62.8315C58.2015 61.9364 58.1753 61.0302 58.2384 60.1302C58.3727 60.1441 58.5089 60.1375 58.6412 60.1111C58.6505 59.9366 58.6598 59.7616 58.6691 59.5871C58.7729 59.602 58.88 59.5926 58.9795 59.5598C58.9538 59.4677 59.104 58.387 59.0695 58.3844C58.9028 58.3721 58.7353 58.3714 58.5686 58.3828C58.5643 58.5173 58.5603 58.6519 58.556 58.7867C58.5479 59.0483 58.0358 58.8498 58.0306 58.9643C58.038 58.7997 58.0453 58.6352 58.0527 58.4706C57.8744 58.4626 57.6959 58.4545 57.5176 58.4467C57.5278 58.6252 57.5361 58.804 57.5426 58.9829C57.4416 58.9747 57.3104 58.9914 57.2126 59.0172C57.2366 58.8264 57.2355 58.6326 57.2088 58.4423C57.0781 58.4274 56.9474 58.4125 56.8167 58.3974C56.8191 58.5655 56.8217 58.7334 56.8243 58.9015C56.6746 58.8902 56.5248 58.8788 56.3753 58.8677C56.3918 58.7088 56.3872 58.5478 56.3618 58.3901C56.1461 58.3943 55.9925 58.4328 55.779 58.4028Z" fill="url(#paint67_linear)" style="mix-blend-mode:color-dodge"/>
<path d="M65.6659 49.0107C65.6771 49.3425 65.6704 49.6749 65.6459 50.0059C65.6971 50.0444 65.7723 50.0484 65.8273 50.0151C65.8211 50.2477 65.8332 50.4812 65.864 50.7117C65.9213 50.6498 66.0335 50.6767 66.0856 50.7435C66.1375 50.8101 66.1458 50.8996 66.1515 50.9839C66.203 51.7425 66.2099 52.5042 66.1718 53.2638C66.1701 53.2978 66.1677 53.3336 66.1501 53.3632C66.0611 53.5129 65.7847 53.3056 65.6609 53.4286C65.6661 53.684 65.6711 53.9395 65.6761 54.195C65.6768 54.2318 65.6759 54.2727 65.649 54.2979C65.6273 54.3187 65.5949 54.322 65.5659 54.3303C65.3281 54.3964 65.3443 54.734 65.4128 54.9696C65.4673 54.9895 65.5266 54.9958 65.5811 55.0159L68.8531 55.1323C68.8374 54.9456 68.8248 54.7583 68.8091 54.5716C68.7281 54.5735 68.6474 54.5753 68.5667 54.577C68.5505 54.1801 68.5346 53.7827 68.5186 53.3856C68.4122 53.3575 68.2941 53.3778 68.2032 53.4397C68.0884 52.5446 68.0625 51.6384 68.1253 50.7383C68.2596 50.752 68.396 50.7457 68.5284 50.7195C68.5374 50.5445 68.5467 50.37 68.556 50.1953C68.6598 50.2099 68.7669 50.2005 68.8667 50.1679C68.841 50.0758 68.9909 48.9952 68.9564 48.9926C68.7898 48.98 68.6222 48.9793 68.4555 48.9907C68.4512 49.1255 68.4472 49.2601 68.4429 49.3947C68.4348 49.6565 67.9227 49.4579 67.9175 49.5724C67.9249 49.4079 67.9323 49.2433 67.9396 49.0785C67.7613 49.0707 67.5828 49.0629 67.4045 49.0549C67.4147 49.2336 67.423 49.4121 67.4295 49.5909C67.3285 49.5828 67.1974 49.5994 67.0995 49.6253C67.1238 49.4346 67.1224 49.2407 67.0957 49.0504C66.965 49.0355 66.8343 49.0204 66.7036 49.0055C66.7062 49.1737 66.7086 49.3415 66.7112 49.5096C66.5615 49.4983 66.412 49.4872 66.2622 49.4759C66.2787 49.317 66.2741 49.1557 66.2487 48.998C66.033 49.0025 65.8794 49.041 65.6659 49.0107Z" fill="url(#paint68_linear)" style="mix-blend-mode:color-dodge"/>
<path d="M71.455 54.8438C71.0955 54.5919 71.0557 54.0208 71.3712 53.7207C71.6868 53.4206 72.2744 53.4586 72.5522 53.7922C72.8298 54.1256 72.7436 54.6764 72.381 54.9229C72.4829 54.9206 72.575 55.0164 72.5643 55.1135C72.5534 55.2107 72.4422 55.2854 72.3432 55.2622C72.4058 55.9819 72.5153 56.6977 72.671 57.4042C72.7017 57.5435 72.7369 57.6877 72.8298 57.7987C72.9369 57.9262 73.104 57.9904 73.2369 58.0934C73.3421 58.1748 73.4278 58.3248 73.3459 58.4279C72.8424 58.3649 72.3365 58.4568 71.8289 58.4473L70.4751 58.422C70.4487 58.3444 70.4437 58.2546 70.4465 58.1732C70.4494 58.0917 70.4884 58.0067 70.5639 57.9694C70.6151 57.9439 70.6803 57.9409 70.7181 57.8995C70.7643 57.849 70.7505 57.7609 70.8065 57.7206C70.855 57.6854 70.9248 57.7092 70.9845 57.6979C71.086 57.679 71.1338 57.5695 71.1633 57.4748C71.2581 57.1697 71.3338 56.859 71.39 56.5452C71.4638 56.1349 71.5161 55.6959 71.4864 55.2804C71.484 55.2473 71.4761 55.2077 71.4438 55.1963L71.3859 55.1975C71.2878 55.2072 71.1986 55.1073 71.2166 55.0145C71.2347 54.9215 71.3592 54.8204 71.455 54.8438Z" fill="url(#paint69_linear)" style="mix-blend-mode:color-dodge"/>
<path d="M62.7846 55.9511C62.7517 56.0594 62.6682 56.1518 62.6577 56.2646C62.6475 56.3772 62.7893 56.5005 62.8674 56.4179C62.9015 57.2641 62.7855 58.1162 62.5263 58.9232C62.4689 59.1019 62.3994 59.2866 62.2589 59.4124C62.1675 59.4943 62.0492 59.5482 61.9778 59.6476C61.9061 59.7467 61.9071 59.909 62.0256 59.9415L64.3463 59.9812C64.4079 59.8457 64.3475 59.6818 64.2677 59.5557C64.1877 59.4301 64.0761 59.3279 63.9873 59.2082C63.7878 58.9388 63.7152 58.5995 63.6576 58.2701C63.5495 57.6515 63.4759 57.0265 63.4376 56.3999C63.5416 56.4757 63.7166 56.4025 63.7345 56.2755C63.7504 56.1607 63.659 56.0545 63.663 55.939C63.6664 55.8389 63.7387 55.7565 63.7778 55.6642C63.8537 55.4838 63.7959 55.2734 63.6957 55.1051L63.6614 55.0626C63.5866 55.0071 63.4993 55.1153 63.4688 55.2028C63.4878 55.1129 63.4057 55.0168 63.3131 55.0199C63.2205 55.0234 63.146 55.1256 63.1714 55.2139C63.1798 55.1289 63.0895 55.0501 63.0057 55.069C62.9222 55.0881 62.8755 55.1984 62.9203 55.2708C62.8712 55.2288 62.8186 55.1854 62.7546 55.175C62.6906 55.1646 62.6139 55.2031 62.6084 55.2671C62.6032 55.3313 62.667 55.383 62.671 55.4472C62.6782 55.5615 62.6113 55.592 62.6501 55.6977C62.6841 55.7898 62.8367 55.7801 62.7846 55.9511Z" fill="url(#paint70_linear)" style="mix-blend-mode:color-dodge"/>
<path d="M63.2451 54.4994L63.2741 54.4888L63.2346 54.4635C63.1498 54.4532 63.061 54.5034 63.0277 54.5811C62.9944 54.659 63.0201 54.758 63.0877 54.8094C63.1725 54.8739 63.3193 54.8416 63.3527 54.741C63.3751 54.6739 63.3441 54.5962 63.2886 54.5519C63.2332 54.5072 63.1584 54.4916 63.087 54.4964L63.2451 54.4994Z" fill="url(#paint71_linear)" style="mix-blend-mode:color-dodge"/>
<path d="M49.1655 60.7093C49.126 60.8934 49.3495 61.0096 49.5136 61.1045C49.8073 61.2747 50.0147 61.5843 50.0587 61.9188C50.103 62.2534 49.9828 62.6054 49.743 62.8448C49.7552 63.0127 49.7676 63.1804 49.7799 63.348C49.9768 63.3622 50.0428 63.6209 50.0159 63.815C49.989 64.0093 49.9311 64.2327 50.0592 64.3819C50.218 64.3472 50.2825 64.5769 50.273 64.7382C50.2699 64.7904 50.2654 64.8466 50.2323 64.8869C50.1992 64.9278 50.1073 64.9538 50.0773 64.9106L47.0029 64.8529C47.0332 64.6652 47.0667 64.4782 47.097 64.2905C47.1705 64.2627 47.2534 64.2589 47.3291 64.2802C47.3103 63.9555 47.3436 63.6278 47.4272 63.3135C47.4848 63.3095 47.5438 63.323 47.5936 63.352C47.7266 63.1027 47.824 62.8347 47.8821 62.5587C47.74 62.6482 47.5371 62.5634 47.4533 62.4184C47.3693 62.2737 47.3784 62.0938 47.4145 61.9309C47.4507 61.7677 47.5119 61.6093 47.525 61.4428C47.5686 60.8927 47.0913 60.4167 47.0755 59.8654C47.062 59.3904 47.4057 58.9625 47.8252 58.7326C48.2447 58.5028 48.731 58.4327 49.2055 58.3664C49.2112 58.3654 49.1376 58.9668 49.1315 59.018C49.6292 59.1358 50.4525 59.8456 50.4887 60.4054C50.5446 61.2757 49.2833 60.162 49.1655 60.7093Z" fill="url(#paint72_linear)" style="mix-blend-mode:color-dodge"/>
<path d="M57.7617 63.2401C57.7286 63.3485 57.645 63.4408 57.6348 63.5537C57.6243 63.6663 57.7664 63.7896 57.8445 63.7069C57.8786 64.5531 57.7624 65.4052 57.5034 66.2123C57.446 66.3912 57.3765 66.5756 57.2358 66.7015C57.1446 66.7834 57.0263 66.8372 56.9546 66.9366C56.8832 67.0358 56.8842 67.1983 57.0027 67.2306L59.3234 67.2703C59.3848 67.1347 59.3246 66.9709 59.2448 66.8448C59.1648 66.7192 59.0532 66.617 58.9644 66.4972C58.7646 66.2278 58.6923 65.8886 58.6347 65.5592C58.5266 64.9406 58.453 64.3158 58.4144 63.689C58.5187 63.7648 58.6937 63.6916 58.7116 63.5645C58.7275 63.45 58.6361 63.3436 58.6399 63.2281C58.6432 63.128 58.7158 63.0456 58.7546 62.9533C58.8306 62.7729 58.773 62.5625 58.6725 62.3944L58.6385 62.3517C58.5635 62.2962 58.4763 62.4043 58.4459 62.4919C58.4647 62.402 58.3828 62.3059 58.2902 62.3089C58.1976 62.3125 58.1231 62.4147 58.1485 62.503C58.1569 62.418 58.0664 62.3391 57.9828 62.358C57.899 62.3774 57.8524 62.4874 57.8974 62.5599C57.8481 62.5179 57.7955 62.4744 57.7314 62.4641C57.6676 62.4537 57.591 62.4921 57.5855 62.5561C57.58 62.6204 57.6441 62.6721 57.6481 62.7363C57.6553 62.8506 57.5884 62.881 57.6272 62.9868C57.6612 63.0789 57.8138 63.0694 57.7617 63.2401Z" fill="url(#paint73_linear)" style="mix-blend-mode:color-dodge"/>
<path d="M58.2216 61.7887L58.2509 61.7781L58.2112 61.7528C58.1266 61.7424 58.0378 61.7927 58.0045 61.8706C57.9712 61.9483 57.9969 62.0472 58.0645 62.0987C58.149 62.1632 58.2962 62.131 58.3295 62.0302C58.3519 61.9632 58.3207 61.8857 58.2654 61.8411C58.21 61.7965 58.135 61.7811 58.0638 61.7856L58.2216 61.7887Z" fill="url(#paint74_linear)" style="mix-blend-mode:color-dodge"/>
<path d="M75.6289 63.1685C75.6615 63.3541 75.4337 63.4615 75.2661 63.5503C74.9659 63.7095 74.7468 64.011 74.6902 64.3439C74.6333 64.6766 74.7399 65.0328 74.9704 65.281C74.9518 65.4482 74.933 65.6151 74.9144 65.7822C74.7168 65.7893 74.6414 66.0455 74.6607 66.2403C74.6802 66.4353 74.7295 66.6606 74.5959 66.8048C74.4385 66.7645 74.3652 66.9916 74.3686 67.1529C74.3698 67.2053 74.3721 67.2615 74.4038 67.3035C74.4352 67.3455 74.5262 67.3748 74.5576 67.3328L77.6319 67.3904C77.6089 67.2017 77.5824 67.0136 77.5593 66.8249C77.487 66.7944 77.4046 66.7874 77.3279 66.8058C77.3591 66.4821 77.3384 66.1536 77.2668 65.8363C77.2091 65.8302 77.1499 65.8413 77.0989 65.8684C76.9756 65.6141 76.8882 65.3429 76.8409 65.0647C76.9794 65.1596 77.1856 65.0824 77.2748 64.941C77.3641 64.7993 77.362 64.6192 77.332 64.4548C77.302 64.2905 77.2472 64.1297 77.2403 63.963C77.218 63.4117 77.7129 62.9541 77.7496 62.4038C77.7815 61.9294 77.4541 61.4891 77.0437 61.2438C76.6335 60.9982 76.15 60.9099 75.6784 60.8259C75.6727 60.8247 75.7234 61.4284 75.7274 61.4799C75.2256 61.579 74.3757 62.2574 74.3183 62.8153C74.2293 63.6828 75.532 62.6172 75.6289 63.1685Z" fill="url(#paint75_linear)" style="mix-blend-mode:color-dodge"/>
<path d="M79.6302 75.9054C79.793 75.5 80.3434 75.3276 80.7115 75.5616C81.0795 75.7958 81.1797 76.3712 80.9181 76.7171C80.6562 77.063 80.0961 77.1088 79.7697 76.817C79.7959 76.9148 79.7235 77.026 79.6257 77.0382C79.5278 77.0505 79.4286 76.9608 79.4283 76.8597C78.7375 77.0888 78.0614 77.3619 77.4052 77.6776C77.276 77.7399 77.1427 77.8075 77.0558 77.9232C76.9558 78.0563 76.9317 78.2325 76.8622 78.3845C76.807 78.5052 76.6799 78.623 76.5597 78.5682C76.5035 78.0679 76.2952 77.6018 76.1856 77.11L75.8933 75.7987C75.9631 75.755 76.05 75.729 76.1304 75.713C76.2109 75.6967 76.3035 75.7144 76.3578 75.7781C76.3944 75.8216 76.413 75.8839 76.4625 75.9108C76.5225 75.9434 76.6058 75.9094 76.6584 75.954C76.7042 75.9927 76.6975 76.0652 76.7222 76.1205C76.7646 76.2135 76.8832 76.2343 76.9829 76.2402C77.3043 76.2603 77.6264 76.2605 77.9471 76.2414C78.3668 76.2163 78.8093 76.1642 79.2098 76.0381C79.2414 76.0282 79.2786 76.0112 79.2819 75.9774L79.2674 75.9219C79.2348 75.8296 79.3117 75.72 79.4069 75.7158C79.5024 75.7113 79.6309 75.8076 79.6302 75.9054Z" fill="url(#paint76_linear)" style="mix-blend-mode:color-dodge"/>
<path d="M86.7177 72.7129C86.8206 72.8711 87.0615 72.7967 87.2453 72.7495C87.5745 72.6645 87.9419 72.7389 88.2109 72.9452C88.4801 73.1516 88.6456 73.4852 88.6456 73.8226C88.7737 73.9331 88.9017 74.0434 89.0298 74.1536C89.1796 74.0257 89.4102 74.1633 89.5293 74.3196C89.6483 74.4759 89.7661 74.6747 89.963 74.691C90.0509 74.5553 90.2601 74.6731 90.368 74.7937C90.403 74.8329 90.4394 74.8759 90.4449 74.9281C90.4503 74.98 90.4037 75.0627 90.352 75.053L88.1316 77.1631C88.0197 77.0087 87.9104 76.8528 87.7983 76.6987C87.8307 76.6274 87.8866 76.5669 87.9554 76.5287C87.7112 76.3117 87.5019 76.0564 87.3374 75.775C87.3755 75.7318 87.4269 75.7002 87.4829 75.6858C87.3998 75.4161 87.2784 75.1578 87.1232 74.9215C87.0863 75.0846 86.8818 75.1666 86.7194 75.1224C86.557 75.0785 86.4354 74.9446 86.3452 74.8037C86.2549 74.6629 86.1854 74.5078 86.0764 74.3803C85.716 73.9603 85.0391 73.9567 84.6359 73.5768C84.2883 73.2496 84.2278 72.7058 84.3616 72.2494C84.4954 71.793 84.7904 71.403 85.0796 71.0243C85.083 71.0198 85.4584 71.4974 85.4905 71.5378C85.9271 71.2734 87.0156 71.2004 87.4393 71.5718C88.0978 72.1496 86.4118 72.2426 86.7177 72.7129Z" fill="url(#paint77_linear)" style="mix-blend-mode:color-dodge"/>
<path d="M36.2511 52.8973C36.1111 53.0246 35.8971 52.8924 35.7311 52.8003C35.4343 52.6357 35.06 52.6154 34.747 52.7474C34.4339 52.8796 34.1889 53.1608 34.1025 53.4871C33.9506 53.562 33.7985 53.6364 33.6466 53.7107C33.5343 53.5497 33.276 53.6245 33.121 53.7461C32.9658 53.8675 32.8013 54.0304 32.6068 53.9964C32.5561 53.8432 32.3237 53.9046 32.1885 53.9945C32.1447 54.0238 32.0983 54.0559 32.0797 54.1048C32.0611 54.1539 32.0852 54.2457 32.138 54.2493L33.7476 56.8479C33.8952 56.7268 34.0409 56.6031 34.1885 56.4822C34.1754 56.4052 34.1368 56.3325 34.0799 56.2784C34.3715 56.1299 34.6391 55.9351 34.87 55.7044C34.8443 55.653 34.8027 55.6095 34.7522 55.5814C34.9012 55.3415 35.0848 55.1222 35.295 54.9323C35.2893 55.0993 35.4662 55.2298 35.6345 55.228C35.8028 55.2261 35.9547 55.1271 36.078 55.0136C36.2011 54.9 36.308 54.7673 36.446 54.6717C36.9017 54.3555 37.5575 54.522 38.0446 54.2557C38.4643 54.0264 38.6617 53.5152 38.6486 53.0404C38.6355 52.5654 38.4498 52.1139 38.2667 51.6748C38.2646 51.6696 37.7794 52.0374 37.738 52.0686C37.383 51.7031 36.3487 51.3591 35.844 51.6124C35.0595 52.006 36.667 52.5191 36.2511 52.8973Z" fill="url(#paint78_linear)" style="mix-blend-mode:color-dodge"/>
<path d="M115.6 61.5745C116.434 62.4467 117.366 63.2268 118.369 63.8914C119.465 64.0447 120.554 64.3365 121.602 64.7579C121.906 64.8802 122.22 65.016 122.536 65.0044C122.852 64.9933 123.167 64.7792 123.165 64.464C123.163 64.1884 122.934 63.9519 122.721 63.7552C121.086 62.2483 119.32 60.8839 117.456 59.6863C117.344 59.6146 117.223 59.5407 117.096 59.5407C116.994 59.5407 116.903 59.5883 116.82 59.6396C116.149 60.0521 115.695 60.7727 115.6 61.5745Z" fill="url(#paint79_linear)" style="mix-blend-mode:color-dodge"/>
<path d="M80.423 61.0816C80.1788 61.533 79.955 62.0503 80.0935 62.5438C80.1726 62.8255 80.3614 63.0625 80.553 63.2847C81.8255 64.7623 83.4905 65.9985 85.4174 66.352C86.8531 66.6152 88.3286 66.3756 89.7687 66.1359C94.3521 65.3731 98.9691 64.8329 103.589 64.3467C106.016 64.0915 108.444 63.8532 110.871 63.6053C112.074 63.4823 113.3 63.2689 114.508 63.2254C115.362 63.1947 116.375 63.4693 117.194 63.2715C117.293 62.6522 116.792 62.0683 116.208 61.8274C115.625 61.5868 114.972 61.5993 114.341 61.5682C110.125 61.3606 106.286 59.0893 102.123 58.3958C99.7478 58.0004 97.3184 58.1177 94.9444 57.7203C93.1213 57.4153 91.5018 56.5981 89.6718 56.3353C85.7423 55.7705 82.3118 57.5891 80.423 61.0816Z" fill="url(#paint80_linear)" style="mix-blend-mode:color-dodge"/>
<path d="M93.2187 65.7927C93.296 66.7007 93.4477 67.6331 93.9436 68.4069C94.6951 69.5789 96.138 70.1966 97.5528 70.3186C98.9674 70.4409 100.38 70.138 101.766 69.8367C106.407 68.8285 111.049 67.8199 115.69 66.8117C117.601 66.3964 119.512 65.9811 121.423 65.566C122.124 65.4137 122.863 65.2425 123.381 64.7595C123.9 64.2766 124.073 63.3721 123.546 62.898C123.175 62.5646 122.616 62.554 122.112 62.5622C115.264 62.6746 108.416 62.7872 101.568 62.8996C102.102 61.3713 104.503 60.5029 104.079 58.9413C103.87 58.1742 103.026 57.7565 102.245 57.5265C100.182 56.919 96.2775 56.6907 94.5016 58.2178C92.7728 59.7051 93.0389 63.6906 93.2187 65.7927Z" fill="url(#paint81_linear)" style="mix-blend-mode:color-dodge"/>
<path d="M85.4612 35.2502C84.2595 38.844 83.3436 42.5552 82.7282 46.3258C82.42 48.2157 82.0452 50.3668 80.5683 51.3634C79.5834 52.0281 78.3555 51.9858 77.2478 52.3324C76.929 52.4321 76.5493 52.8006 76.7609 53.0828C76.8588 53.2131 77.0328 53.2223 77.1854 53.2214C78.4988 53.2129 79.8122 53.2046 81.1256 53.1964C81.656 53.1928 82.1983 53.1874 82.6978 52.9869C83.9328 52.4918 84.5575 50.9946 85.0532 49.6408C86.8194 44.8166 88.5858 39.992 90.352 35.1676C90.9207 33.6142 90.8283 31.7469 89.056 31.5507C87.1512 31.3398 86.0078 33.6161 85.4612 35.2502Z" fill="url(#paint82_linear)" style="mix-blend-mode:color-dodge"/>
<path d="M108.925 40.3178C110.038 42.3498 111.165 44.4181 111.649 46.6805C112.089 48.7365 111.978 50.8733 111.668 52.9527C111.361 55.012 110.856 57.0577 109.963 58.9421C109.67 59.56 109.304 60.192 108.698 60.5148C107.826 60.978 106.762 60.6664 105.816 60.379C100.243 58.684 94.3159 58.1419 88.5241 58.7973C86.5377 59.0223 84.4861 59.381 82.5723 58.8065C82.2694 58.7159 81.9559 58.5893 81.7724 58.3336C81.4253 57.851 81.6971 57.1828 82.0014 56.6724C83.8933 53.4998 86.8781 50.9817 90.3396 49.6387C91.1247 49.3339 91.9555 49.0753 92.5895 48.524C93.2235 47.9727 93.6015 47.0195 93.2037 46.2822C92.5952 45.1548 90.8664 45.3802 89.8056 44.6535C88.9126 44.0417 88.6469 42.8728 88.4505 41.8145C87.9213 38.965 87.3923 36.1156 86.8634 33.2662C86.8188 33.0264 86.7743 32.7794 86.8246 32.5409C86.9855 31.7755 87.9323 31.5346 88.6676 31.2527C91.3763 30.215 91.7958 27.6908 93.0018 25.4482C94.4381 22.7769 96.9787 25.1016 98.8603 26.6052C103.353 30.1947 106.216 35.3728 108.925 40.3178Z" fill="url(#paint83_linear)" style="mix-blend-mode:color-dodge"/>
<path d="M81.8837 26.4987C82.6779 27.5366 83.4719 28.5746 84.2658 29.6125C84.5986 30.0476 85.0102 30.5241 85.5609 30.5319C85.9456 30.5369 86.2884 30.3052 86.5955 30.0753C89.1218 28.1859 91.3615 25.4787 91.4008 22.3411C91.408 21.7676 91.3389 21.1867 91.1294 20.6522C90.8747 20.0022 90.4229 19.4447 89.9165 18.9607C88.2527 17.3708 85.9944 16.517 83.7218 16.1024C83.2417 16.0148 82.7474 15.9449 82.2668 16.0304C81.2798 16.2053 80.5301 16.9906 79.9076 17.7703C77.676 20.5646 80.0685 24.1256 81.8837 26.4987Z" fill="url(#paint84_linear)" style="mix-blend-mode:color-dodge"/>
<path d="M95.9303 34.0662C94.6645 35.247 93.9556 36.7304 93.263 38.1308C91.4657 41.7645 89.3457 45.4275 86.5323 48.818C83.7188 52.2083 80.1519 55.328 76.2993 57.2327C75.2302 57.7616 73.9525 58.3707 73.4412 59.3784C75.3283 59.7904 77.8582 58.9914 80.1519 57.6862C82.4454 56.3813 84.558 54.6083 86.6061 52.8295C89.1198 50.6462 91.6442 48.3562 93.4823 45.7491C94.3167 44.5657 94.9902 43.3434 95.6601 42.1272C96.6585 40.3139 97.657 38.501 98.6554 36.6877C99.3408 35.4429 100.666 33.4953 99.6669 32.8247C98.8482 32.2753 96.9271 33.1369 95.9303 34.0662Z" fill="url(#paint85_linear)" style="mix-blend-mode:color-dodge"/>
<path d="M82.6601 22.1967C83.8687 24.8888 87.7225 25.4172 89.2847 27.9242C90.1291 29.2788 90.355 31.2333 91.8432 31.832C91.5906 30.1306 92.4731 28.4975 93.0475 26.8749C94.0036 24.1734 94.1245 21.1871 93.3899 18.4185C92.8288 16.303 91.7318 14.2663 89.9877 12.9273C88.2436 11.5883 85.7944 11.0536 83.7604 11.8991C83.012 12.21 82.3458 12.6884 81.7231 13.2045C80.333 14.3562 79.1027 15.749 78.4068 17.4079C76.924 20.943 78.4568 25.1403 82.6601 22.1967Z" fill="url(#paint86_linear)" style="mix-blend-mode:color-dodge"/>
<path d="M120.33 62.6878C121.264 63.6499 122.298 64.5209 123.4 65.2743C124.573 65.496 125.746 65.8627 126.882 66.3633C127.212 66.5087 127.553 66.6685 127.887 66.674C128.222 66.6794 128.545 66.4723 128.525 66.1411C128.508 65.8514 128.251 65.5905 128.013 65.3718C126.193 63.6988 124.241 62.1681 122.194 60.8072C122.071 60.7255 121.939 60.6414 121.803 60.6343C121.695 60.6284 121.602 60.6738 121.517 60.7229C120.827 61.1188 120.386 61.8508 120.33 62.6878Z" fill="url(#paint87_linear)" style="mix-blend-mode:color-dodge"/>
<path d="M24.8534 48.5315C24.8482 48.5114 24.8482 48.4944 24.8546 48.481C24.8763 48.4342 24.9353 48.4203 24.9865 48.4108C25.6271 48.2907 26.2223 47.9436 26.6394 47.4461C26.7777 47.2815 26.9488 47.0596 27.1319 46.9989C27.1064 47.0457 27.0793 47.0917 27.0503 47.1373C26.561 47.9051 25.7514 48.2774 24.8534 48.5315ZM52.6919 37.5671C52.3902 37.4417 52.0788 37.3355 51.7608 37.25C51.7632 37.25 51.7653 37.25 51.7674 37.25C51.7872 37.25 51.8086 37.2531 51.8358 37.2583C52.1353 37.3152 52.4255 37.42 52.6919 37.5671Z" fill="url(#paint88_linear)" style="mix-blend-mode:color-dodge"/>
<path d="M30.1695 51.0632C29.3672 51.0632 28.5644 50.9157 27.8126 50.6385C27.2161 50.4184 26.6497 50.1162 26.1383 49.7396C25.9691 49.6152 24.924 48.8013 24.8533 48.5317C25.7512 48.2776 26.5609 47.9053 27.0501 47.1375C27.0792 47.0919 27.1063 47.0459 27.1318 46.9991C27.1627 46.9887 27.1939 46.9833 27.2253 46.9833C27.297 46.9833 27.3698 47.0123 27.4425 47.0829C27.7181 47.35 27.8562 47.6583 28.2133 47.8729C28.7132 48.1735 29.3098 48.306 29.8971 48.306C30.064 48.306 30.2299 48.2953 30.3928 48.2748C31.5214 48.1322 32.558 47.6061 33.6362 47.2461C34.7905 46.8605 36.0092 46.6657 37.2273 46.6657C37.977 46.6657 38.7262 46.7394 39.4606 46.8877C40.3141 47.06 41.2056 47.328 42.0591 47.328C42.4714 47.328 42.8749 47.2654 43.2613 47.0992C45.492 46.1397 45.2518 42.7201 47.0834 41.1337C47.89 40.4348 48.9889 40.1945 49.9499 39.7253C50.9108 39.2562 51.8323 38.3365 51.664 37.2877C51.7016 37.262 51.7288 37.2516 51.7607 37.2502C52.0787 37.3357 52.3901 37.4419 52.6917 37.5673C52.701 37.5725 52.7103 37.5777 52.7196 37.5831C52.8279 37.6447 52.9324 37.7134 53.0476 37.7602C53.2969 37.861 53.5757 37.8527 53.8406 37.9009C53.9585 37.9222 54.0342 38.0324 54.0489 38.1505C54.2418 39.7015 53.4954 41.3318 52.1908 42.2087C51.2526 42.8393 50.084 43.0906 49.1962 43.7894C47.4388 45.1721 47.2289 47.9192 45.4167 49.2308C44.5949 49.8256 43.5558 50.0284 42.529 50.0284C42.3443 50.0284 42.16 50.022 41.9772 50.01C40.7793 49.9313 39.6037 49.6426 38.4069 49.5488C38.1222 49.5264 37.8365 49.5153 37.5511 49.5153C36.4346 49.5153 35.3178 49.6851 34.2532 50.0187C33.3381 50.3056 32.4594 50.7119 31.5226 50.918C31.0779 51.016 30.6237 51.0632 30.1695 51.0632Z" fill="url(#paint89_linear)" style="mix-blend-mode:color-dodge"/>
<defs>
<linearGradient id="paint0_linear" x1="3.12409" y1="56.3334" x2="106.574" y2="56.3334" gradientUnits="userSpaceOnUse">
<stop stop-color="#948BB3" stop-opacity="0"/>
<stop offset="1" stop-color="#3E3445"/>
</linearGradient>
<linearGradient id="paint1_linear" x1="24.9903" y1="74.647" x2="90.4547" y2="74.647" gradientUnits="userSpaceOnUse">
<stop stop-color="#948BB3" stop-opacity="0"/>
<stop offset="1" stop-color="#3E3445"/>
</linearGradient>
<linearGradient id="paint2_linear" x1="80.941" y1="67.2819" x2="128.124" y2="67.2819" gradientUnits="userSpaceOnUse">
<stop stop-color="#948BB3" stop-opacity="0"/>
<stop offset="1" stop-color="#3E3445"/>
</linearGradient>
<linearGradient id="paint3_linear" x1="29.0235" y1="46.8944" x2="85.1228" y2="46.8944" gradientUnits="userSpaceOnUse">
<stop stop-color="#948BB3" stop-opacity="0"/>
<stop offset="1" stop-color="#3E3445"/>
</linearGradient>
<linearGradient id="paint4_linear" x1="25.1076" y1="46.4326" x2="85.1173" y2="46.4326" gradientUnits="userSpaceOnUse">
<stop stop-color="#948BB3" stop-opacity="0"/>
<stop offset="1" stop-color="#3E3445"/>
</linearGradient>
<linearGradient id="paint5_linear" x1="-0.021275" y1="44.1078" x2="59.8786" y2="44.1078" gradientUnits="userSpaceOnUse">
<stop stop-color="#948BB3" stop-opacity="0"/>
<stop offset="1" stop-color="#3E3445"/>
</linearGradient>
<linearGradient id="paint6_linear" x1="19.3972" y1="12.662" x2="32.8295" y2="12.662" gradientUnits="userSpaceOnUse">
<stop stop-color="#948BB3" stop-opacity="0"/>
<stop offset="1" stop-color="#3E3445"/>
</linearGradient>
<linearGradient id="paint7_linear" x1="-9.52442" y1="44.1987" x2="22.648" y2="44.1987" gradientUnits="userSpaceOnUse">
<stop stop-color="#948BB3" stop-opacity="0"/>
<stop offset="1" stop-color="#3E3445"/>
</linearGradient>
<linearGradient id="paint8_linear" x1="12.3661" y1="11.1717" x2="34.7781" y2="11.1717" gradientUnits="userSpaceOnUse">
<stop stop-color="#948BB3" stop-opacity="0"/>
<stop offset="1" stop-color="#3E3445"/>
</linearGradient>
<linearGradient id="paint9_linear" x1="27.4559" y1="68.9552" x2="80.6539" y2="68.9552" gradientUnits="userSpaceOnUse">
<stop stop-color="#948BB3" stop-opacity="0"/>
<stop offset="1" stop-color="#3E3445"/>
</linearGradient>
<linearGradient id="paint10_linear" x1="28.0295" y1="65.9926" x2="80.5882" y2="65.9926" gradientUnits="userSpaceOnUse">
<stop stop-color="#948BB3" stop-opacity="0"/>
<stop offset="1" stop-color="#3E3445"/>
</linearGradient>
<linearGradient id="paint11_linear" x1="76.6275" y1="69.4569" x2="80.4853" y2="69.4569" gradientUnits="userSpaceOnUse">
<stop stop-color="#948BB3" stop-opacity="0"/>
<stop offset="1" stop-color="#3E3445"/>
</linearGradient>
<linearGradient id="paint12_linear" x1="76.4057" y1="64.1026" x2="79.9677" y2="64.1026" gradientUnits="userSpaceOnUse">
<stop stop-color="#948BB3" stop-opacity="0"/>
<stop offset="1" stop-color="#3E3445"/>
</linearGradient>
<linearGradient id="paint13_linear" x1="76.1299" y1="61.2123" x2="79.6091" y2="61.2123" gradientUnits="userSpaceOnUse">
<stop stop-color="#948BB3" stop-opacity="0"/>
<stop offset="1" stop-color="#3E3445"/>
</linearGradient>
<linearGradient id="paint14_linear" x1="75.8492" y1="58.1187" x2="79.1624" y2="58.1187" gradientUnits="userSpaceOnUse">
<stop stop-color="#948BB3" stop-opacity="0"/>
<stop offset="1" stop-color="#3E3445"/>
</linearGradient>
<linearGradient id="paint15_linear" x1="72.1684" y1="70.5246" x2="78.4105" y2="70.5246" gradientUnits="userSpaceOnUse">
<stop stop-color="#948BB3" stop-opacity="0"/>
<stop offset="1" stop-color="#3E3445"/>
</linearGradient>
<linearGradient id="paint16_linear" x1="75.4824" y1="54.6778" x2="78.6343" y2="54.6778" gradientUnits="userSpaceOnUse">
<stop stop-color="#948BB3" stop-opacity="0"/>
<stop offset="1" stop-color="#3E3445"/>
</linearGradient>
<linearGradient id="paint17_linear" x1="72.165" y1="67.5728" x2="78.1267" y2="67.5728" gradientUnits="userSpaceOnUse">
<stop stop-color="#948BB3" stop-opacity="0"/>
<stop offset="1" stop-color="#3E3445"/>
</linearGradient>
<linearGradient id="paint18_linear" x1="72.1324" y1="64.1983" x2="77.7695" y2="64.1983" gradientUnits="userSpaceOnUse">
<stop stop-color="#948BB3" stop-opacity="0"/>
<stop offset="1" stop-color="#3E3445"/>
</linearGradient>
<linearGradient id="paint19_linear" x1="72.0513" y1="61.0797" x2="77.4602" y2="61.0797" gradientUnits="userSpaceOnUse">
<stop stop-color="#948BB3" stop-opacity="0"/>
<stop offset="1" stop-color="#3E3445"/>
</linearGradient>
<linearGradient id="paint20_linear" x1="71.8935" y1="58.1174" x2="77.16" y2="58.1174" gradientUnits="userSpaceOnUse">
<stop stop-color="#948BB3" stop-opacity="0"/>
<stop offset="1" stop-color="#3E3445"/>
</linearGradient>
<linearGradient id="paint21_linear" x1="71.6799" y1="54.9264" x2="76.83" y2="54.9264" gradientUnits="userSpaceOnUse">
<stop stop-color="#948BB3" stop-opacity="0"/>
<stop offset="1" stop-color="#3E3445"/>
</linearGradient>
<linearGradient id="paint22_linear" x1="71.7168" y1="52.3396" x2="76.5024" y2="52.3396" gradientUnits="userSpaceOnUse">
<stop stop-color="#948BB3" stop-opacity="0"/>
<stop offset="1" stop-color="#3E3445"/>
</linearGradient>
<linearGradient id="paint23_linear" x1="66.2399" y1="70.5672" x2="74.0616" y2="70.5672" gradientUnits="userSpaceOnUse">
<stop stop-color="#948BB3" stop-opacity="0"/>
<stop offset="1" stop-color="#3E3445"/>
</linearGradient>
<linearGradient id="paint24_linear" x1="66.4604" y1="67.7233" x2="74.0163" y2="67.7233" gradientUnits="userSpaceOnUse">
<stop stop-color="#948BB3" stop-opacity="0"/>
<stop offset="1" stop-color="#3E3445"/>
</linearGradient>
<linearGradient id="paint25_linear" x1="67.0849" y1="64.2565" x2="73.93" y2="64.2565" gradientUnits="userSpaceOnUse">
<stop stop-color="#948BB3" stop-opacity="0"/>
<stop offset="1" stop-color="#3E3445"/>
</linearGradient>
<linearGradient id="paint26_linear" x1="67.8715" y1="60.9211" x2="73.8011" y2="60.9211" gradientUnits="userSpaceOnUse">
<stop stop-color="#948BB3" stop-opacity="0"/>
<stop offset="1" stop-color="#3E3445"/>
</linearGradient>
<linearGradient id="paint27_linear" x1="68.4858" y1="58.0323" x2="73.6525" y2="58.0323" gradientUnits="userSpaceOnUse">
<stop stop-color="#948BB3" stop-opacity="0"/>
<stop offset="1" stop-color="#3E3445"/>
</linearGradient>
<linearGradient id="paint28_linear" x1="68.7936" y1="54.9474" x2="73.4526" y2="54.9474" gradientUnits="userSpaceOnUse">
<stop stop-color="#948BB3" stop-opacity="0"/>
<stop offset="1" stop-color="#3E3445"/>
</linearGradient>
<linearGradient id="paint29_linear" x1="68.7813" y1="52.3424" x2="73.2047" y2="52.3424" gradientUnits="userSpaceOnUse">
<stop stop-color="#948BB3" stop-opacity="0"/>
<stop offset="1" stop-color="#3E3445"/>
</linearGradient>
<linearGradient id="paint30_linear" x1="62.6185" y1="54.9811" x2="70.2572" y2="54.9811" gradientUnits="userSpaceOnUse">
<stop stop-color="#948BB3" stop-opacity="0"/>
<stop offset="1" stop-color="#3E3445"/>
</linearGradient>
<linearGradient id="paint31_linear" x1="63.1797" y1="57.9113" x2="70.2355" y2="57.9113" gradientUnits="userSpaceOnUse">
<stop stop-color="#948BB3" stop-opacity="0"/>
<stop offset="1" stop-color="#3E3445"/>
</linearGradient>
<linearGradient id="paint32_linear" x1="62.4261" y1="52.375" x2="70.1728" y2="52.375" gradientUnits="userSpaceOnUse">
<stop stop-color="#948BB3" stop-opacity="0"/>
<stop offset="1" stop-color="#3E3445"/>
</linearGradient>
<linearGradient id="paint33_linear" x1="63.3575" y1="60.8584" x2="70.0156" y2="60.8584" gradientUnits="userSpaceOnUse">
<stop stop-color="#948BB3" stop-opacity="0"/>
<stop offset="1" stop-color="#3E3445"/>
</linearGradient>
<linearGradient id="paint34_linear" x1="63.3368" y1="64.2792" x2="69.6269" y2="64.2792" gradientUnits="userSpaceOnUse">
<stop stop-color="#948BB3" stop-opacity="0"/>
<stop offset="1" stop-color="#3E3445"/>
</linearGradient>
<linearGradient id="paint35_linear" x1="63.433" y1="67.7618" x2="69.1113" y2="67.7618" gradientUnits="userSpaceOnUse">
<stop stop-color="#948BB3" stop-opacity="0"/>
<stop offset="1" stop-color="#3E3445"/>
</linearGradient>
<linearGradient id="paint36_linear" x1="63.6053" y1="70.5806" x2="68.6973" y2="70.5806" gradientUnits="userSpaceOnUse">
<stop stop-color="#948BB3" stop-opacity="0"/>
<stop offset="1" stop-color="#3E3445"/>
</linearGradient>
<linearGradient id="paint37_linear" x1="58.3534" y1="60.951" x2="65.3701" y2="60.951" gradientUnits="userSpaceOnUse">
<stop stop-color="#948BB3" stop-opacity="0"/>
<stop offset="1" stop-color="#3E3445"/>
</linearGradient>
<linearGradient id="paint38_linear" x1="56.8379" y1="70.4816" x2="65.1514" y2="70.4816" gradientUnits="userSpaceOnUse">
<stop stop-color="#948BB3" stop-opacity="0"/>
<stop offset="1" stop-color="#3E3445"/>
</linearGradient>
<linearGradient id="paint39_linear" x1="57.6603" y1="64.3202" x2="65.3285" y2="64.3202" gradientUnits="userSpaceOnUse">
<stop stop-color="#948BB3" stop-opacity="0"/>
<stop offset="1" stop-color="#3E3445"/>
</linearGradient>
<linearGradient id="paint40_linear" x1="57.1374" y1="67.7615" x2="65.1989" y2="67.7615" gradientUnits="userSpaceOnUse">
<stop stop-color="#948BB3" stop-opacity="0"/>
<stop offset="1" stop-color="#3E3445"/>
</linearGradient>
<linearGradient id="paint41_linear" x1="59.0084" y1="57.8218" x2="65.3672" y2="57.8218" gradientUnits="userSpaceOnUse">
<stop stop-color="#948BB3" stop-opacity="0"/>
<stop offset="1" stop-color="#3E3445"/>
</linearGradient>
<linearGradient id="paint42_linear" x1="59.4407" y1="55.0165" x2="65.2686" y2="55.0165" gradientUnits="userSpaceOnUse">
<stop stop-color="#948BB3" stop-opacity="0"/>
<stop offset="1" stop-color="#3E3445"/>
</linearGradient>
<linearGradient id="paint43_linear" x1="59.8504" y1="52.4148" x2="64.8798" y2="52.4148" gradientUnits="userSpaceOnUse">
<stop stop-color="#948BB3" stop-opacity="0"/>
<stop offset="1" stop-color="#3E3445"/>
</linearGradient>
<linearGradient id="paint44_linear" x1="54.8366" y1="55.0575" x2="61.3394" y2="55.0575" gradientUnits="userSpaceOnUse">
<stop stop-color="#948BB3" stop-opacity="0"/>
<stop offset="1" stop-color="#3E3445"/>
</linearGradient>
<linearGradient id="paint45_linear" x1="55.4808" y1="52.4718" x2="61.344" y2="52.4718" gradientUnits="userSpaceOnUse">
<stop stop-color="#948BB3" stop-opacity="0"/>
<stop offset="1" stop-color="#3E3445"/>
</linearGradient>
<linearGradient id="paint46_linear" x1="54.1472" y1="57.8549" x2="61.1661" y2="57.8549" gradientUnits="userSpaceOnUse">
<stop stop-color="#948BB3" stop-opacity="0"/>
<stop offset="1" stop-color="#3E3445"/>
</linearGradient>
<linearGradient id="paint47_linear" x1="53.1608" y1="61.1151" x2="60.8909" y2="61.1151" gradientUnits="userSpaceOnUse">
<stop stop-color="#948BB3" stop-opacity="0"/>
<stop offset="1" stop-color="#3E3445"/>
</linearGradient>
<linearGradient id="paint48_linear" x1="52.4572" y1="64.4629" x2="60.4305" y2="64.4629" gradientUnits="userSpaceOnUse">
<stop stop-color="#948BB3" stop-opacity="0"/>
<stop offset="1" stop-color="#3E3445"/>
</linearGradient>
<linearGradient id="paint49_linear" x1="52.0904" y1="67.6366" x2="59.9304" y2="67.6366" gradientUnits="userSpaceOnUse">
<stop stop-color="#948BB3" stop-opacity="0"/>
<stop offset="1" stop-color="#3E3445"/>
</linearGradient>
<linearGradient id="paint50_linear" x1="51.9249" y1="70.3367" x2="59.5241" y2="70.3367" gradientUnits="userSpaceOnUse">
<stop stop-color="#948BB3" stop-opacity="0"/>
<stop offset="1" stop-color="#3E3445"/>
</linearGradient>
<linearGradient id="paint51_linear" x1="50.7955" y1="52.4881" x2="57.2919" y2="52.4881" gradientUnits="userSpaceOnUse">
<stop stop-color="#948BB3" stop-opacity="0"/>
<stop offset="1" stop-color="#3E3445"/>
</linearGradient>
<linearGradient id="paint52_linear" x1="50.198" y1="55.1064" x2="57.2169" y2="55.1064" gradientUnits="userSpaceOnUse">
<stop stop-color="#948BB3" stop-opacity="0"/>
<stop offset="1" stop-color="#3E3445"/>
</linearGradient>
<linearGradient id="paint53_linear" x1="49.5542" y1="57.9846" x2="56.7618" y2="57.9846" gradientUnits="userSpaceOnUse">
<stop stop-color="#948BB3" stop-opacity="0"/>
<stop offset="1" stop-color="#3E3445"/>
</linearGradient>
<linearGradient id="paint54_linear" x1="48.7024" y1="61.3161" x2="56.2252" y2="61.3161" gradientUnits="userSpaceOnUse">
<stop stop-color="#948BB3" stop-opacity="0"/>
<stop offset="1" stop-color="#3E3445"/>
</linearGradient>
<linearGradient id="paint55_linear" x1="48.316" y1="64.7247" x2="55.4492" y2="64.7247" gradientUnits="userSpaceOnUse">
<stop stop-color="#948BB3" stop-opacity="0"/>
<stop offset="1" stop-color="#3E3445"/>
</linearGradient>
<linearGradient id="paint56_linear" x1="48.2212" y1="67.8575" x2="54.8177" y2="67.8575" gradientUnits="userSpaceOnUse">
<stop stop-color="#948BB3" stop-opacity="0"/>
<stop offset="1" stop-color="#3E3445"/>
</linearGradient>
<linearGradient id="paint57_linear" x1="48.3043" y1="70.1858" x2="54.4115" y2="70.1858" gradientUnits="userSpaceOnUse">
<stop stop-color="#948BB3" stop-opacity="0"/>
<stop offset="1" stop-color="#3E3445"/>
</linearGradient>
<linearGradient id="paint58_linear" x1="47.4234" y1="52.5513" x2="52.7788" y2="52.5513" gradientUnits="userSpaceOnUse">
<stop stop-color="#948BB3" stop-opacity="0"/>
<stop offset="1" stop-color="#3E3445"/>
</linearGradient>
<linearGradient id="paint59_linear" x1="46.5507" y1="55.1602" x2="52.7187" y2="55.1602" gradientUnits="userSpaceOnUse">
<stop stop-color="#948BB3" stop-opacity="0"/>
<stop offset="1" stop-color="#3E3445"/>
</linearGradient>
<linearGradient id="paint60_linear" x1="45.9009" y1="58.1583" x2="52.2756" y2="58.1583" gradientUnits="userSpaceOnUse">
<stop stop-color="#948BB3" stop-opacity="0"/>
<stop offset="1" stop-color="#3E3445"/>
</linearGradient>
<linearGradient id="paint61_linear" x1="45.1552" y1="61.5299" x2="51.6878" y2="61.5299" gradientUnits="userSpaceOnUse">
<stop stop-color="#948BB3" stop-opacity="0"/>
<stop offset="1" stop-color="#3E3445"/>
</linearGradient>
<linearGradient id="paint62_linear" x1="44.5631" y1="65.1057" x2="50.9293" y2="65.1057" gradientUnits="userSpaceOnUse">
<stop stop-color="#948BB3" stop-opacity="0"/>
<stop offset="1" stop-color="#3E3445"/>
</linearGradient>
<linearGradient id="paint63_linear" x1="44.1318" y1="68.0358" x2="50.4276" y2="68.0358" gradientUnits="userSpaceOnUse">
<stop stop-color="#948BB3" stop-opacity="0"/>
<stop offset="1" stop-color="#3E3445"/>
</linearGradient>
<linearGradient id="paint64_linear" x1="43.9429" y1="70.0827" x2="50.1742" y2="70.0827" gradientUnits="userSpaceOnUse">
<stop stop-color="#948BB3" stop-opacity="0"/>
<stop offset="1" stop-color="#3E3445"/>
</linearGradient>
<linearGradient id="paint65_linear" x1="41.0485" y1="65.2622" x2="49.284" y2="65.2622" gradientUnits="userSpaceOnUse">
<stop stop-color="#948BB3" stop-opacity="0"/>
<stop offset="1" stop-color="#3E3445"/>
</linearGradient>
<linearGradient id="paint66_linear" x1="51.2093" y1="56.4313" x2="55.3754" y2="56.4313" gradientUnits="userSpaceOnUse">
<stop stop-color="#948BB3" stop-opacity="0"/>
<stop offset="1" stop-color="#3E3445"/>
</linearGradient>
<linearGradient id="paint67_linear" x1="53.9703" y1="62.8735" x2="59.0747" y2="62.8735" gradientUnits="userSpaceOnUse">
<stop stop-color="#948BB3" stop-opacity="0"/>
<stop offset="1" stop-color="#3E3445"/>
</linearGradient>
<linearGradient id="paint68_linear" x1="63.8573" y1="53.4816" x2="68.9616" y2="53.4816" gradientUnits="userSpaceOnUse">
<stop stop-color="#948BB3" stop-opacity="0"/>
<stop offset="1" stop-color="#3E3445"/>
</linearGradient>
<linearGradient id="paint69_linear" x1="69.2125" y1="57.1244" x2="73.3785" y2="57.1244" gradientUnits="userSpaceOnUse">
<stop stop-color="#948BB3" stop-opacity="0"/>
<stop offset="1" stop-color="#3E3445"/>
</linearGradient>
<linearGradient id="paint70_linear" x1="60.9021" y1="58.6494" x2="64.3716" y2="58.6494" gradientUnits="userSpaceOnUse">
<stop stop-color="#948BB3" stop-opacity="0"/>
<stop offset="1" stop-color="#3E3445"/>
</linearGradient>
<linearGradient id="paint71_linear" x1="62.8673" y1="54.7406" x2="63.36" y2="54.7406" gradientUnits="userSpaceOnUse">
<stop stop-color="#948BB3" stop-opacity="0"/>
<stop offset="1" stop-color="#3E3445"/>
</linearGradient>
<linearGradient id="paint72_linear" x1="45.5363" y1="63.1702" x2="50.4905" y2="63.1702" gradientUnits="userSpaceOnUse">
<stop stop-color="#948BB3" stop-opacity="0"/>
<stop offset="1" stop-color="#3E3445"/>
</linearGradient>
<linearGradient id="paint73_linear" x1="55.8791" y1="65.9385" x2="59.3486" y2="65.9385" gradientUnits="userSpaceOnUse">
<stop stop-color="#948BB3" stop-opacity="0"/>
<stop offset="1" stop-color="#3E3445"/>
</linearGradient>
<linearGradient id="paint74_linear" x1="57.8441" y1="62.0299" x2="58.3368" y2="62.0299" gradientUnits="userSpaceOnUse">
<stop stop-color="#948BB3" stop-opacity="0"/>
<stop offset="1" stop-color="#3E3445"/>
</linearGradient>
<linearGradient id="paint75_linear" x1="72.8683" y1="65.6283" x2="77.7517" y2="65.6283" gradientUnits="userSpaceOnUse">
<stop stop-color="#948BB3" stop-opacity="0"/>
<stop offset="1" stop-color="#3E3445"/>
</linearGradient>
<linearGradient id="paint76_linear" x1="73.7185" y1="77.7429" x2="81.0648" y2="77.7429" gradientUnits="userSpaceOnUse">
<stop stop-color="#948BB3" stop-opacity="0"/>
<stop offset="1" stop-color="#3E3445"/>
</linearGradient>
<linearGradient id="paint77_linear" x1="81.7098" y1="75.5152" x2="90.4453" y2="75.5152" gradientUnits="userSpaceOnUse">
<stop stop-color="#948BB3" stop-opacity="0"/>
<stop offset="1" stop-color="#3E3445"/>
</linearGradient>
<linearGradient id="paint78_linear" x1="29.3081" y1="55.4192" x2="38.6492" y2="55.4192" gradientUnits="userSpaceOnUse">
<stop stop-color="#948BB3" stop-opacity="0"/>
<stop offset="1" stop-color="#3E3445"/>
</linearGradient>
<linearGradient id="paint79_linear" x1="112.419" y1="63.5383" x2="123.165" y2="63.5383" gradientUnits="userSpaceOnUse">
<stop stop-color="#948BB3" stop-opacity="0"/>
<stop offset="1" stop-color="#3E3445"/>
</linearGradient>
<linearGradient id="paint80_linear" x1="64.4257" y1="63.72" x2="117.206" y2="63.72" gradientUnits="userSpaceOnUse">
<stop stop-color="#948BB3" stop-opacity="0"/>
<stop offset="1" stop-color="#3E3445"/>
</linearGradient>
<linearGradient id="paint81_linear" x1="80.1435" y1="66.7805" x2="123.866" y2="66.7805" gradientUnits="userSpaceOnUse">
<stop stop-color="#948BB3" stop-opacity="0"/>
<stop offset="1" stop-color="#3E3445"/>
</linearGradient>
<linearGradient id="paint82_linear" x1="70.8277" y1="47.4007" x2="90.6628" y2="47.4007" gradientUnits="userSpaceOnUse">
<stop stop-color="#948BB3" stop-opacity="0"/>
<stop offset="1" stop-color="#3E3445"/>
</linearGradient>
<linearGradient id="paint83_linear" x1="68.8545" y1="50.947" x2="111.941" y2="50.947" gradientUnits="userSpaceOnUse">
<stop stop-color="#948BB3" stop-opacity="0"/>
<stop offset="1" stop-color="#3E3445"/>
</linearGradient>
<linearGradient id="paint84_linear" x1="73.7931" y1="26.6289" x2="91.4013" y2="26.6289" gradientUnits="userSpaceOnUse">
<stop stop-color="#948BB3" stop-opacity="0"/>
<stop offset="1" stop-color="#3E3445"/>
</linearGradient>
<linearGradient id="paint85_linear" x1="62.2607" y1="52.2841" x2="100.027" y2="52.2841" gradientUnits="userSpaceOnUse">
<stop stop-color="#948BB3" stop-opacity="0"/>
<stop offset="1" stop-color="#3E3445"/>
</linearGradient>
<linearGradient id="paint86_linear" x1="71.1219" y1="26.3723" x2="93.8646" y2="26.3723" gradientUnits="userSpaceOnUse">
<stop stop-color="#948BB3" stop-opacity="0"/>
<stop offset="1" stop-color="#3E3445"/>
</linearGradient>
<linearGradient id="paint87_linear" x1="116.884" y1="65.0527" x2="128.526" y2="65.0527" gradientUnits="userSpaceOnUse">
<stop stop-color="#948BB3" stop-opacity="0"/>
<stop offset="1" stop-color="#3E3445"/>
</linearGradient>
<linearGradient id="paint88_linear" x1="13.1408" y1="45.5032" x2="52.6918" y2="45.5032" gradientUnits="userSpaceOnUse">
<stop stop-color="#948BB3" stop-opacity="0"/>
<stop offset="1" stop-color="#3E3445"/>
</linearGradient>
<linearGradient id="paint89_linear" x1="12.5626" y1="47.3554" x2="54.079" y2="47.3554" gradientUnits="userSpaceOnUse">
<stop stop-color="#948BB3" stop-opacity="0"/>
<stop offset="1" stop-color="#3E3445"/>
</linearGradient>
</defs>
</svg>
