<svg width="28" height="29" viewBox="0 0 28 29" fill="none" xmlns="http://www.w3.org/2000/svg">
<path d="M11.2 21.1708L19.6 14.8708L11.2 8.57085V21.1708ZM14 0.87085C6.272 0.87085 0 7.14285 0 14.8708C0 22.5988 6.272 28.8708 14 28.8708C21.728 28.8708 28 22.5988 28 14.8708C28 7.14285 21.728 0.87085 14 0.87085ZM14 26.0708C7.826 26.0708 2.8 21.0448 2.8 14.8708C2.8 8.69685 7.826 3.67085 14 3.67085C20.174 3.67085 25.2 8.69685 25.2 14.8708C25.2 21.0448 20.174 26.0708 14 26.0708Z" fill="#F7F6F4"/>
</svg>
