<svg width="375" height="64" viewBox="0 0 375 64" fill="none" xmlns="http://www.w3.org/2000/svg">
<g filter="url(#filter0_bd)">
<path fill-rule="evenodd" clip-rule="evenodd" d="M0 0H375V63H0V0Z" fill="#1D1D1D" fill-opacity="0.94"/>
</g>
<rect opacity="0.35" x="336.5" y="17.8334" width="21" height="10.3333" rx="2.16667" stroke="white"/>
<path opacity="0.4" d="M359 21V25C359.805 24.6612 360.328 23.8731 360.328 23C360.328 22.1269 359.805 21.3388 359 21" fill="white"/>
<rect x="338" y="19.3334" width="18" height="7.33333" rx="1.33333" fill="white"/>
<path fill-rule="evenodd" clip-rule="evenodd" d="M323.33 19.608C325.546 19.6081 327.678 20.4596 329.283 21.9863C329.404 22.1042 329.598 22.1027 329.717 21.983L330.873 20.8163C330.933 20.7556 330.967 20.6734 330.966 20.5878C330.966 20.5022 330.931 20.4204 330.87 20.3603C326.655 16.3208 320.005 16.3208 315.79 20.3603C315.729 20.4203 315.694 20.5021 315.694 20.5877C315.693 20.6733 315.727 20.7556 315.787 20.8163L316.943 21.983C317.062 22.1029 317.256 22.1044 317.377 21.9863C318.983 20.4595 321.114 19.608 323.33 19.608ZM323.33 23.4037C324.548 23.4036 325.722 23.8561 326.624 24.6733C326.747 24.7893 326.939 24.7868 327.058 24.6677L328.212 23.501C328.273 23.4398 328.307 23.3568 328.306 23.2705C328.305 23.1843 328.27 23.102 328.208 23.042C325.46 20.4856 321.204 20.4856 318.455 23.042C318.393 23.102 318.358 23.1843 318.357 23.2706C318.356 23.3569 318.39 23.4399 318.451 23.501L319.605 24.6677C319.724 24.7868 319.917 24.7893 320.039 24.6733C320.941 23.8567 322.114 23.4042 323.33 23.4037ZM325.643 25.9575C325.645 26.044 325.611 26.1274 325.549 26.188L323.552 28.2037C323.494 28.2629 323.414 28.2963 323.33 28.2963C323.247 28.2963 323.167 28.2629 323.109 28.2037L321.111 26.188C321.049 26.1274 321.015 26.0439 321.017 25.9574C321.019 25.8709 321.057 25.789 321.121 25.731C322.396 24.6521 324.265 24.6521 325.54 25.731C325.604 25.789 325.642 25.871 325.643 25.9575Z" fill="white"/>
<path fill-rule="evenodd" clip-rule="evenodd" d="M309.667 17.6666H308.667C308.114 17.6666 307.667 18.1143 307.667 18.6666V27.3333C307.667 27.8856 308.114 28.3333 308.667 28.3333H309.667C310.219 28.3333 310.667 27.8856 310.667 27.3333V18.6666C310.667 18.1143 310.219 17.6666 309.667 17.6666ZM304 20H305C305.552 20 306 20.4477 306 21V27.3333C306 27.8856 305.552 28.3333 305 28.3333H304C303.448 28.3333 303 27.8856 303 27.3333V21C303 20.4477 303.448 20 304 20ZM300.333 22.3333H299.333C298.781 22.3333 298.333 22.781 298.333 23.3333V27.3333C298.333 27.8856 298.781 28.3333 299.333 28.3333H300.333C300.885 28.3333 301.333 27.8856 301.333 27.3333V23.3333C301.333 22.781 300.885 22.3333 300.333 22.3333ZM295.667 24.3333H294.667C294.114 24.3333 293.667 24.781 293.667 25.3333V27.3333C293.667 27.8856 294.114 28.3333 294.667 28.3333H295.667C296.219 28.3333 296.667 27.8856 296.667 27.3333V25.3333C296.667 24.781 296.219 24.3333 295.667 24.3333Z" fill="white"/>
<defs>
<filter id="filter0_bd" x="-20" y="-20" width="415" height="103" filterUnits="userSpaceOnUse" color-interpolation-filters="sRGB">
<feFlood flood-opacity="0" result="BackgroundImageFix"/>
<feGaussianBlur in="BackgroundImage" stdDeviation="10"/>
<feComposite in2="SourceAlpha" operator="in" result="effect1_backgroundBlur"/>
<feColorMatrix in="SourceAlpha" type="matrix" values="0 0 0 0 0 0 0 0 0 0 0 0 0 0 0 0 0 0 127 0"/>
<feOffset dy="0.5"/>
<feColorMatrix type="matrix" values="0 0 0 0 1 0 0 0 0 1 0 0 0 0 1 0 0 0 0.15 0"/>
<feBlend mode="normal" in2="effect1_backgroundBlur" result="effect2_dropShadow"/>
<feBlend mode="normal" in="SourceGraphic" in2="effect2_dropShadow" result="shape"/>
</filter>
</defs>
</svg>
