<svg width="152" height="100" viewBox="0 0 152 100" fill="none" xmlns="http://www.w3.org/2000/svg">
<path d="M86.5349 99.0381C84.7412 99.0381 82.9466 99.0346 81.1529 99.0285C65.231 98.9733 49.3123 98.7007 33.3902 98.7007C31.4335 98.7007 29.4741 98.7049 27.5176 98.7141C27.2392 98.7154 26.8509 98.7177 26.3699 98.7177C20.1561 98.7175 -1.47244 98.347 0.079432 90.868C0.675841 87.9939 4.14282 84.253 6.08772 83.0489C8.54462 81.5277 11.2312 80.6278 13.9356 80.3245C16.2151 80.0687 18.4373 79.7943 20.6883 79.7943C21.6177 79.7943 22.5521 79.8411 23.4972 79.9553C25.5072 80.1984 27.5322 80.3736 29.5526 80.5888L29.1143 86.5061L32.1253 87.1085L33.5805 81.1041C33.8408 81.1451 34.1004 81.188 34.3601 81.2331C35.8914 81.4986 37.4234 81.7179 38.9553 81.8988C38.14 82.4199 37.3145 82.9793 36.8615 83.826C36.6695 84.1845 36.5225 84.5831 36.4961 84.9922C36.4795 85.2491 36.5011 85.4916 36.5551 85.7201C35.3954 85.9958 34.5307 87.0349 34.5287 88.2795V88.3328C34.5262 89.7894 35.7051 90.9723 37.1617 90.9747L64.3783 91.0186C64.3797 91.0186 64.381 91.0186 64.3826 91.0186C65.837 91.0186 67.0173 89.8403 67.0197 88.3852V88.332C67.0217 87.0775 66.1474 86.0286 64.9747 85.7591C65.1557 85.1374 65.08 84.4362 64.6603 83.6455C64.484 83.3139 64.2508 83.0258 63.9833 82.7668C65.6724 82.777 67.3604 82.7874 69.0491 82.7874C73.8499 82.7874 78.6493 82.703 83.4404 82.2876C84.2301 82.2191 85.0192 82.1567 85.809 82.1C85.42 82.4244 85.0785 82.7923 84.8409 83.2396C84.4213 84.0302 84.3455 84.7315 84.5263 85.3531C83.3539 85.6226 82.4794 86.6716 82.4815 87.926V87.9792C82.484 89.4344 83.6643 90.6124 85.1186 90.6126C85.1202 90.6126 85.1215 90.6126 85.123 90.6126L112.34 90.5687C113.796 90.5665 114.975 89.3835 114.973 87.927L114.972 87.8736C114.971 86.6289 114.106 85.5899 112.946 85.3142C113 85.0855 113.022 84.8431 113.005 84.586C112.979 84.1771 112.832 83.7784 112.64 83.4198C112.199 82.5958 111.405 82.044 110.611 81.5345C114.382 81.4834 118.142 81.1904 121.909 80.9774C126.067 80.7426 130.11 80.357 134.244 80.357C134.617 80.357 134.991 80.3601 135.365 80.3669C139.496 80.4405 145.785 81.9997 148.732 85.9732C157.453 97.7421 139.034 97.4497 133.855 97.7778C121.894 98.5357 109.912 98.8658 97.9308 98.9848C94.1319 99.0226 90.3338 99.0381 86.5349 99.0381" fill="url(#paint0_linear)"/>
<path d="M13.3837 5.17584L12.9678 1.64095L16.8081 0.00019765L17.5224 1.63305L15.7138 4.29123L15.2759 5.90845L13.3837 5.17584" fill="url(#paint1_linear)"/>
<path d="M31.0708 25.769L35.7192 32.9055L38.7451 38.6857L37.638 40.9263L33.6128 39.8004L31.0708 25.769Z" fill="url(#paint2_linear)"/>
<path d="M25.5015 50.9716V54.5853L30.3187 70.2446L29.1144 86.506L32.1254 87.1084L36.9426 67.2332L36.7584 61.3856L34.5339 49.4595L25.5015 50.9716" fill="url(#paint3_linear)"/>
<path d="M31.7299 86.7995L34.0284 89.2326L33.3644 90.4658L28.6221 88.189L29.4954 86.3864L31.7299 86.7995" fill="url(#paint4_linear)"/>
<path d="M24.4412 87.9107L27.2744 89.6921L26.9397 91.0522L21.7788 90.0327L22.1743 88.0693L24.4412 87.9107Z" fill="url(#paint5_linear)"/>
<path d="M31.086 25.7506L23.9192 22.9071C23.9192 22.9071 21.372 29.2346 18.4766 39.3707C15.581 49.5066 19.821 62.4092 19.821 62.4092C19.821 62.4092 36.24 58.5063 39.5186 57.8628L35.4063 39.335L31.086 25.7506" fill="url(#paint6_linear)"/>
<path d="M29.3227 55.2504L24.482 88.3757H22.2819L20.8922 70.3073L17.8813 52.2391L29.3227 55.2504" fill="url(#paint7_linear)"/>
<path d="M31.3237 15.8062C29.3722 15.9498 27.5477 14.3469 25.627 14.7448C24.3783 15.0036 23.3923 16.1115 23.0114 17.3599C22.8338 17.9418 22.7708 18.5761 22.9446 19.1549C23.0575 19.5303 23.2654 19.8688 23.5105 20.1694C23.838 20.5718 24.2384 20.9058 24.6831 21.1624C24.4389 21.556 23.8852 22.2254 23.574 22.5686C24.4739 22.9134 25.3738 23.2582 26.2739 23.6028C26.4728 23.0855 26.9455 22.2706 27.1443 21.7533C27.4149 21.7383 27.6847 21.6998 27.9489 21.6313C29.5468 21.2165 30.8714 19.8169 31.2278 18.1668C31.3947 17.3938 31.3626 16.5944 31.3237 15.8062" fill="url(#paint8_linear)"/>
<path d="M30.8309 16.3951L24.7968 15.678L23.6258 20.2878L21.9219 18.9355L22.7999 11.3923L31.3155 11.2092L35.0025 13.3725L34.8465 15.5405L31.5495 17.7601L30.8309 16.3951" fill="url(#paint9_linear)"/>
<path d="M28.3807 24.2351L21.6021 21.6306C21.6021 21.6306 18.7749 27.5028 15.8795 37.6386C12.9839 47.7747 17.2239 60.6772 17.2239 60.6772C17.2239 60.6772 31.9111 53.4189 35.1898 52.7752L32.809 37.6031L28.3807 24.2351Z" fill="url(#paint10_linear)"/>
<path d="M15.7711 37.8554C18.6666 27.7193 21.1742 21.3811 21.1742 21.3811L28.3806 24.2353L28.3921 24.2719C28.2333 24.686 28.0675 25.098 27.9237 25.5177C27.3561 27.1748 26.9365 28.8805 26.6788 30.6133C26.2258 33.659 26.1782 36.7904 26.2756 39.8638C26.369 42.8126 26.6728 45.7561 27.1967 48.6598C27.8893 52.4986 28.9934 56.2391 30.4163 59.8595C23.7502 61.2142 15.9051 62.8159 15.9051 62.8159C15.9051 62.8159 12.8756 47.9915 15.7711 37.8554Z" fill="url(#paint11_linear)"/>
<path d="M21.7791 21.6204L14.6445 17.1969L15.9709 5.05348L12.8079 3.82892L7.60449 17.7072L8.6248 19.9522L18.4042 29.3914L21.7791 21.6204" fill="url(#paint12_linear)"/>
<path d="M34.948 35.055L34.2339 26.5852H37.7027L40.3554 38.2184L38.519 41.79L35.5659 40.3464L34.948 35.055" fill="url(#paint13_linear)"/>
<path d="M37.2945 26.5852V23.7281L35.1518 22.9117L33.2134 24.4424V25.7689L34.6417 26.5852H37.2945" fill="url(#paint14_linear)"/>
<path d="M114.973 87.8736C114.971 86.6289 114.106 85.5899 112.946 85.3142C113 85.0855 113.022 84.8431 113.005 84.586C112.979 84.177 112.832 83.7784 112.64 83.4198C112.142 82.4887 111.193 81.9052 110.302 81.3375C109.351 80.7308 108.399 80.0741 107.739 79.1584C106.483 77.4153 107.52 75.4667 106.803 73.6059C106.29 72.2751 105.478 71.9116 104.426 71.764L104.31 70.7156C107.292 70.7865 109.539 70.7667 109.762 70.5588C109.955 70.3786 110.141 69.0055 110.199 66.8738L114.028 65.9984C115.245 65.7065 113.268 52.3139 112.996 51.0974C111.655 45.0789 108.256 39.8952 103.546 36.2478C101.371 34.563 98.9161 33.2061 96.2552 32.2459C95.9006 32.1181 93.6295 31.9296 93.5298 31.7952L89.6318 26.5627C89.4272 26.2883 88.9607 26.37 88.9507 26.6821L88.7626 32.6284C83.7768 33.9431 80.3722 36.2029 80.3722 36.2029C80.3722 36.2029 80.7563 37.0442 81.6524 39.0073C82.5486 40.9703 77.1421 49.9104 77.1421 49.9104L80.983 55.3557C80.983 55.3557 84.3837 55.3827 84.6282 53.6912C84.8727 52 85.9318 50.609 85.9318 50.609L95.5633 48.6979L95.2834 50.3114L85.6332 64.4851C85.4935 64.6905 85.469 64.9531 85.5687 65.1808L87.4895 69.5621C87.5986 69.8107 87.8372 69.977 88.1083 69.9925C88.9217 70.0391 90.7879 70.144 93.1017 70.2612L92.9805 71.5586C91.956 71.7429 91.0964 72.229 90.6466 73.4068C89.9359 75.2699 90.9784 77.2151 89.7283 78.9624C89.0716 79.8802 88.1214 80.54 87.172 81.1496C86.2835 81.7202 85.3365 82.3069 84.8411 83.2396C84.4214 84.0302 84.3457 84.7315 84.5265 85.3531C83.3541 85.6226 82.4796 86.6716 82.4817 87.926V87.9792C82.4841 89.4359 83.6667 90.615 85.1231 90.6125L112.34 90.5687C113.796 90.5664 114.975 89.3835 114.973 87.927L114.973 87.8736" fill="url(#paint15_linear)"/>
<path d="M104.426 71.7639L93.1016 70.6374V70.2611L104.31 70.7155L104.426 71.7639Z" fill="url(#paint16_linear)"/>
<path d="M110.199 66.8738L112.702 66.3014V66.3016L110.199 66.8738Z" fill="url(#paint17_linear)"/>
<path d="M110.199 66.8738C110.455 66.8154 109.602 60.323 109.512 59.6673C109.171 57.2092 108.692 54.7654 107.972 52.3886C106.502 47.5288 104.034 42.8344 99.9884 39.6562C97.2114 37.4749 93.7153 35.549 90.0673 35.549C90.0331 35.549 89.9994 35.5491 89.9651 35.5495C90.0687 35.5483 90.1727 35.5478 90.2766 35.5478C92.9492 35.5478 95.7352 35.9033 98.2683 36.7269C102.967 38.2552 106.118 42.7359 108.322 46.9172C110.379 50.8185 111.697 55.1081 112.182 59.4918C112.237 59.9884 113.026 66.1797 112.702 66.3014L110.199 66.8738V66.8738ZM89.958 35.5495C89.9604 35.5495 89.9627 35.5495 89.9651 35.5495C89.9628 35.5495 89.9604 35.5495 89.958 35.5495Z" fill="url(#paint18_linear)"/>
<path d="M34.5283 88.2795C34.5304 87.0349 35.395 85.9957 36.5548 85.7201C36.5008 85.4915 36.4792 85.2491 36.4958 84.9922C36.5222 84.5831 36.6692 84.1844 36.8611 83.8259C37.3594 82.8947 38.3082 82.3111 39.1985 81.7435C40.15 81.1368 41.1021 80.4801 41.7619 79.5644C43.0178 77.8211 41.9814 75.8727 42.6982 74.0119C43.2109 72.6811 44.0235 72.3175 45.075 72.17L45.1914 71.1216C42.2093 71.1925 39.9624 71.1726 39.7392 70.9646C39.5459 70.7844 39.3599 69.4116 39.3018 67.2797L35.4735 66.4042C34.256 66.1125 36.2336 52.7199 36.5046 51.5034C37.8463 45.4847 41.2452 40.3012 45.9548 36.6538C48.13 34.969 50.585 33.6121 53.2459 32.6519C53.6005 32.5241 55.8714 32.3355 55.9712 32.2012L59.8693 26.9687C60.0737 26.6943 60.5404 26.7761 60.5504 27.088L60.7385 33.0343C65.7243 34.3489 69.1288 36.609 69.1288 36.609C69.1288 36.609 68.7448 37.4502 67.8487 39.4132C66.9525 41.3763 72.359 50.3164 72.359 50.3164L68.518 55.7618C68.518 55.7618 65.1174 55.7886 64.8729 54.0972C64.6284 52.406 63.5693 51.015 63.5693 51.015L53.9376 49.1037L54.2177 50.7173L63.8679 64.8911C64.0076 65.0963 64.0321 65.3592 63.9324 65.5867L62.0115 69.9681C61.9025 70.2167 61.6637 70.383 61.3928 70.3985C60.5794 70.4451 58.7132 70.5499 56.3992 70.6674L56.5204 71.9646C57.5449 72.1487 58.4045 72.635 58.8545 73.8127C59.565 75.6757 58.5227 77.6209 59.7728 79.3684C60.4295 80.2862 61.3797 80.9458 62.3291 81.5557C63.2176 82.1262 64.1646 82.7128 64.66 83.6454C65.0797 84.4362 65.1554 85.1374 64.9744 85.7591C66.147 86.0286 67.0213 87.0775 67.0194 88.332V88.3852C67.017 89.8419 65.8344 91.0208 64.378 91.0186L37.1614 90.9747C35.7048 90.9723 34.5259 89.7893 34.5283 88.3328V88.2795" fill="url(#paint19_linear)"/>
<path d="M45.0752 72.1699L45.1916 71.1215L56.3993 70.6673V71.0434L45.0752 72.1699Z" fill="url(#paint20_linear)"/>
<path d="M39.302 67.2798L36.9268 66.7367L39.302 67.2798Z" fill="url(#paint21_linear)"/>
<path d="M36.9273 66.7368L36.8 66.7076C36.7998 66.7076 36.7998 66.7076 36.7998 66.7076L36.9273 66.7368" fill="url(#paint22_linear)"/>
<path d="M39.3024 67.2798L36.9272 66.7367L36.7997 66.7076C36.4764 66.5851 37.265 60.3946 37.3199 59.8978C37.805 55.5142 39.1227 51.2246 41.1791 47.3232C43.3833 43.1421 46.535 38.6612 51.2335 37.1333C53.7664 36.3094 56.5526 35.954 59.2251 35.954C59.3291 35.954 59.433 35.9545 59.5367 35.9556C59.5023 35.9551 59.4687 35.955 59.4345 35.955C55.7863 35.955 52.2902 37.881 49.5134 40.0624C45.4679 43.2404 43.0001 47.9349 41.5293 52.7948C40.8099 55.1717 40.3309 57.6153 39.9901 60.0733C39.8992 60.729 39.0473 67.2216 39.3024 67.2798V67.2798ZM59.5438 35.9556C59.5413 35.9556 59.5389 35.9556 59.5367 35.9556C59.5391 35.9556 59.5413 35.9556 59.5438 35.9556Z" fill="url(#paint23_linear)"/>
<path d="M123.073 23.8727L119.438 25.769L112.01 31.4254L100.308 31.4357L99.729 34.4008L111.196 36.6333L115.926 36.5903L123.073 23.8727" fill="url(#paint24_linear)"/>
<path d="M100.462 33.2364L98.9729 34.543L97.7125 34.7253L97.5953 34.3095L98.2385 33.8349L95.7826 33.9397L95.2754 32.8741L97.8868 31.4827L100.603 31.5563L100.462 33.2364" fill="url(#paint25_linear)"/>
<path d="M120.338 86.091L118.105 87.6731L117.36 88.883C117.36 88.883 118.198 89.2552 118.663 89.3482C119.128 89.4412 122.757 88.883 122.757 88.883V86.7424L120.338 86.091Z" fill="url(#paint26_linear)"/>
<path d="M130.28 87.1148L131.49 88.3247C131.49 88.3247 132.514 89.9996 132.048 89.9996C131.583 89.9996 129.071 90.279 128.885 89.9996C128.699 89.7206 127.303 88.7899 127.117 88.6037C126.931 88.4177 127.017 86.7857 127.017 86.7857L130.28 87.1148" fill="url(#paint27_linear)"/>
<path d="M134.561 54.4498L132.979 70.3634L130.28 87.1147H127.024L126.652 69.619C126.652 69.619 124.005 55.2419 123.726 50.4958L134.561 54.4498Z" fill="url(#paint28_linear)"/>
<path d="M116.709 54.729L119.5 86.7424H122.85L123.873 70.3635L125.796 55.8623L118.477 47.284L116.709 54.729" fill="url(#paint29_linear)"/>
<path d="M116.602 34.244C116.948 32.5941 117.085 30.8179 117.902 29.2796C118.719 27.7412 120.262 26.5759 121.454 25.2677C121.959 24.7137 122.497 24.1368 123.248 23.8726C123.762 23.6916 124.329 23.6753 124.883 23.6614C126.563 23.6191 128.244 23.5767 129.924 23.5343C130.537 23.5189 131.174 23.5075 131.732 23.729C132.569 24.0605 133.042 24.8314 133.455 25.5507C134.511 27.3875 134.706 29.4248 134.801 31.5009C134.797 31.5204 136.112 57.5769 135.069 57.0877C133.771 56.4784 132.287 56.1547 130.83 55.9279C128.777 55.5989 126.681 55.3897 124.589 55.3383L120.905 55.5868H118.682C117.348 55.7163 117.457 56.1175 116.086 56.034C115.209 55.9806 116.204 36.1351 116.602 34.244Z" fill="url(#paint30_linear)"/>
<path d="M126.253 24.5042C127.087 24.4677 127.921 24.4316 128.755 24.3953C128.8 23.7311 128.791 23.0634 128.73 22.4003C129.435 22.1958 130.254 21.8753 130.414 21.1591C130.465 20.9336 130.439 20.6988 130.412 20.4692C130.302 19.5198 130.191 18.5706 130.081 17.6212C130.043 17.2928 130.002 16.9547 129.84 16.6663C129.557 16.16 128.967 15.9127 128.402 15.7822C126.96 15.4485 125.356 15.6761 124.174 16.567C123.86 16.8043 123.571 17.0941 123.418 17.4571C123.182 18.0169 123.3 18.6552 123.422 19.2503C123.534 19.7997 123.646 20.349 123.758 20.8982C123.887 21.53 124.084 22.251 124.671 22.5178C124.982 22.6595 125.36 22.644 125.638 22.8436C126.129 23.1953 126.019 23.9477 126.253 24.5042" fill="url(#paint31_linear)"/>
<path d="M121.633 12.4395C121.818 12.4064 122.007 12.3674 122.198 12.2842C122.802 12.0212 123.226 11.4936 123.867 11.247C125.165 10.7476 126.792 10.8202 128.067 11.3563C129.286 11.8693 130.951 12.0668 132.042 12.7562C132.498 13.0441 132.851 13.474 133.118 13.9423C134.045 15.5641 133.931 17.7233 132.838 19.2385C132.593 19.5784 132.305 19.8856 132.005 20.1774C131.382 20.7815 130.637 21.5291 129.816 21.7205C129.837 20.9967 130.621 18.7549 130.099 18.1319C129.407 17.3058 128.049 17.3269 127.075 17.4181C125.915 17.5268 124.96 17.1541 123.804 17.2121C123.214 17.2416 122.548 17.3601 122.096 16.9807C121.574 16.5421 120.47 15.1486 120.208 14.537C119.979 14.0017 120.131 13.3425 120.53 12.9177C120.874 12.5513 121.245 12.5086 121.633 12.4395" fill="url(#paint32_linear)"/>
<path d="M128.519 24.7455L137.726 23.4626L138.331 9.90544L141.399 9.98635L142.961 24.6037L140.92 27.708L132.428 31.0024L128.519 24.7455" fill="url(#paint33_linear)"/>
<path d="M141.122 9.979L141.904 7.8542L140.515 5.90848L137.518 8.58665L138.331 9.9055L141.122 9.979" fill="url(#paint34_linear)"/>
<path d="M120.969 40.9952C120.969 40.7367 121.018 40.4812 121.116 40.2425C121.558 39.1736 126.204 25.7869 126.204 25.7869C126.204 25.7869 126.391 25.0942 126.479 24.4836L127.967 24.3906L127.722 25.9114L127.025 26.5101C127.025 26.5101 124.169 41.2518 124.152 41.5101L122.035 44.1284L120.969 40.9952Z" fill="url(#paint35_linear)"/>
<defs>
<linearGradient id="paint0_linear" x1="75.5207" y1="99.0381" x2="75.5207" y2="79.7943" gradientUnits="userSpaceOnUse">
<stop stop-color="#948BB2" stop-opacity="0"/>
<stop offset="1" stop-color="#3E3445"/>
</linearGradient>
<linearGradient id="paint1_linear" x1="15.2451" y1="5.90845" x2="15.2451" y2="0.000197887" gradientUnits="userSpaceOnUse">
<stop stop-color="#948BB2" stop-opacity="0"/>
<stop offset="1" stop-color="#3E3445"/>
</linearGradient>
<linearGradient id="paint2_linear" x1="34.908" y1="40.9263" x2="34.908" y2="25.769" gradientUnits="userSpaceOnUse">
<stop stop-color="#948BB2" stop-opacity="0"/>
<stop offset="1" stop-color="#3E3445"/>
</linearGradient>
<linearGradient id="paint3_linear" x1="31.222" y1="87.1084" x2="31.222" y2="49.4595" gradientUnits="userSpaceOnUse">
<stop stop-color="#948BB2" stop-opacity="0"/>
<stop offset="1" stop-color="#3E3445"/>
</linearGradient>
<linearGradient id="paint4_linear" x1="31.3252" y1="90.4658" x2="31.3252" y2="86.3864" gradientUnits="userSpaceOnUse">
<stop stop-color="#948BB2" stop-opacity="0"/>
<stop offset="1" stop-color="#3E3445"/>
</linearGradient>
<linearGradient id="paint5_linear" x1="24.5266" y1="91.0522" x2="24.5266" y2="87.9107" gradientUnits="userSpaceOnUse">
<stop stop-color="#948BB2" stop-opacity="0"/>
<stop offset="1" stop-color="#3E3445"/>
</linearGradient>
<linearGradient id="paint6_linear" x1="28.4917" y1="62.4092" x2="28.4917" y2="22.9071" gradientUnits="userSpaceOnUse">
<stop stop-color="#948BB2" stop-opacity="0"/>
<stop offset="1" stop-color="#3E3445"/>
</linearGradient>
<linearGradient id="paint7_linear" x1="23.602" y1="88.3757" x2="23.602" y2="52.2391" gradientUnits="userSpaceOnUse">
<stop stop-color="#948BB2" stop-opacity="0"/>
<stop offset="1" stop-color="#3E3445"/>
</linearGradient>
<linearGradient id="paint8_linear" x1="27.0983" y1="23.6028" x2="27.0983" y2="14.6811" gradientUnits="userSpaceOnUse">
<stop stop-color="#948BB2" stop-opacity="0"/>
<stop offset="1" stop-color="#3E3445"/>
</linearGradient>
<linearGradient id="paint9_linear" x1="28.4622" y1="20.2878" x2="28.4622" y2="11.2092" gradientUnits="userSpaceOnUse">
<stop stop-color="#948BB2" stop-opacity="0"/>
<stop offset="1" stop-color="#3E3445"/>
</linearGradient>
<linearGradient id="paint10_linear" x1="25.0287" y1="60.6772" x2="25.0287" y2="21.6306" gradientUnits="userSpaceOnUse">
<stop stop-color="#948BB2" stop-opacity="0"/>
<stop offset="1" stop-color="#3E3445"/>
</linearGradient>
<linearGradient id="paint11_linear" x1="22.4672" y1="62.8159" x2="22.4672" y2="21.3811" gradientUnits="userSpaceOnUse">
<stop stop-color="#948BB2" stop-opacity="0"/>
<stop offset="1" stop-color="#3E3445"/>
</linearGradient>
<linearGradient id="paint12_linear" x1="14.6918" y1="29.3914" x2="14.6918" y2="3.82892" gradientUnits="userSpaceOnUse">
<stop stop-color="#948BB2" stop-opacity="0"/>
<stop offset="1" stop-color="#3E3445"/>
</linearGradient>
<linearGradient id="paint13_linear" x1="37.2947" y1="41.79" x2="37.2947" y2="26.5852" gradientUnits="userSpaceOnUse">
<stop stop-color="#948BB2" stop-opacity="0"/>
<stop offset="1" stop-color="#3E3445"/>
</linearGradient>
<linearGradient id="paint14_linear" x1="35.2539" y1="26.5852" x2="35.2539" y2="22.9117" gradientUnits="userSpaceOnUse">
<stop stop-color="#948BB2" stop-opacity="0"/>
<stop offset="1" stop-color="#3E3445"/>
</linearGradient>
<linearGradient id="paint15_linear" x1="96.0574" y1="90.6125" x2="96.0574" y2="26.3961" gradientUnits="userSpaceOnUse">
<stop stop-color="#948BB2" stop-opacity="0"/>
<stop offset="1" stop-color="#3E3445"/>
</linearGradient>
<linearGradient id="paint16_linear" x1="98.7636" y1="71.7639" x2="98.7636" y2="70.2611" gradientUnits="userSpaceOnUse">
<stop stop-color="#948BB2" stop-opacity="0"/>
<stop offset="1" stop-color="#3E3445"/>
</linearGradient>
<linearGradient id="paint17_linear" x1="111.45" y1="66.8738" x2="111.45" y2="66.3014" gradientUnits="userSpaceOnUse">
<stop stop-color="#948BB2" stop-opacity="0"/>
<stop offset="1" stop-color="#3E3445"/>
</linearGradient>
<linearGradient id="paint18_linear" x1="101.369" y1="66.8738" x2="101.369" y2="35.5478" gradientUnits="userSpaceOnUse">
<stop stop-color="#948BB2" stop-opacity="0"/>
<stop offset="1" stop-color="#3E3445"/>
</linearGradient>
<linearGradient id="paint19_linear" x1="53.4437" y1="91.0186" x2="53.4437" y2="26.8021" gradientUnits="userSpaceOnUse">
<stop stop-color="#948BB2" stop-opacity="0"/>
<stop offset="1" stop-color="#3E3445"/>
</linearGradient>
<linearGradient id="paint20_linear" x1="50.7373" y1="72.1699" x2="50.7373" y2="70.6673" gradientUnits="userSpaceOnUse">
<stop stop-color="#948BB2" stop-opacity="0"/>
<stop offset="1" stop-color="#3E3445"/>
</linearGradient>
<linearGradient id="paint21_linear" x1="38.1144" y1="67.2798" x2="38.1144" y2="66.7367" gradientUnits="userSpaceOnUse">
<stop stop-color="#948BB2" stop-opacity="0"/>
<stop offset="1" stop-color="#3E3445"/>
</linearGradient>
<linearGradient id="paint22_linear" x1="36.8635" y1="66.7368" x2="36.8635" y2="66.7076" gradientUnits="userSpaceOnUse">
<stop stop-color="#948BB2" stop-opacity="0"/>
<stop offset="1" stop-color="#3E3445"/>
</linearGradient>
<linearGradient id="paint23_linear" x1="48.133" y1="67.2798" x2="48.133" y2="35.954" gradientUnits="userSpaceOnUse">
<stop stop-color="#948BB2" stop-opacity="0"/>
<stop offset="1" stop-color="#3E3445"/>
</linearGradient>
<linearGradient id="paint24_linear" x1="111.401" y1="36.6333" x2="111.401" y2="23.8727" gradientUnits="userSpaceOnUse">
<stop stop-color="#948BB2" stop-opacity="0"/>
<stop offset="1" stop-color="#3E3445"/>
</linearGradient>
<linearGradient id="paint25_linear" x1="97.9393" y1="34.7253" x2="97.9393" y2="31.4827" gradientUnits="userSpaceOnUse">
<stop stop-color="#948BB2" stop-opacity="0"/>
<stop offset="1" stop-color="#3E3445"/>
</linearGradient>
<linearGradient id="paint26_linear" x1="120.059" y1="89.3586" x2="120.059" y2="86.091" gradientUnits="userSpaceOnUse">
<stop stop-color="#948BB2" stop-opacity="0"/>
<stop offset="1" stop-color="#3E3445"/>
</linearGradient>
<linearGradient id="paint27_linear" x1="129.583" y1="90.1238" x2="129.583" y2="86.7857" gradientUnits="userSpaceOnUse">
<stop stop-color="#948BB2" stop-opacity="0"/>
<stop offset="1" stop-color="#3E3445"/>
</linearGradient>
<linearGradient id="paint28_linear" x1="129.143" y1="87.1147" x2="129.143" y2="50.4958" gradientUnits="userSpaceOnUse">
<stop stop-color="#948BB2" stop-opacity="0"/>
<stop offset="1" stop-color="#3E3445"/>
</linearGradient>
<linearGradient id="paint29_linear" x1="121.253" y1="86.7424" x2="121.253" y2="47.284" gradientUnits="userSpaceOnUse">
<stop stop-color="#948BB2" stop-opacity="0"/>
<stop offset="1" stop-color="#3E3445"/>
</linearGradient>
<linearGradient id="paint30_linear" x1="125.603" y1="57.0945" x2="125.603" y2="23.5271" gradientUnits="userSpaceOnUse">
<stop stop-color="#948BB2" stop-opacity="0"/>
<stop offset="1" stop-color="#3E3445"/>
</linearGradient>
<linearGradient id="paint31_linear" x1="126.863" y1="24.5042" x2="126.863" y2="15.636" gradientUnits="userSpaceOnUse">
<stop stop-color="#948BB2" stop-opacity="0"/>
<stop offset="1" stop-color="#3E3445"/>
</linearGradient>
<linearGradient id="paint32_linear" x1="126.922" y1="21.7205" x2="126.922" y2="10.9103" gradientUnits="userSpaceOnUse">
<stop stop-color="#948BB2" stop-opacity="0"/>
<stop offset="1" stop-color="#3E3445"/>
</linearGradient>
<linearGradient id="paint33_linear" x1="135.74" y1="31.0024" x2="135.74" y2="9.90544" gradientUnits="userSpaceOnUse">
<stop stop-color="#948BB2" stop-opacity="0"/>
<stop offset="1" stop-color="#3E3445"/>
</linearGradient>
<linearGradient id="paint34_linear" x1="139.711" y1="9.979" x2="139.711" y2="5.90848" gradientUnits="userSpaceOnUse">
<stop stop-color="#948BB2" stop-opacity="0"/>
<stop offset="1" stop-color="#3E3445"/>
</linearGradient>
<linearGradient id="paint35_linear" x1="124.468" y1="44.1284" x2="124.468" y2="24.3906" gradientUnits="userSpaceOnUse">
<stop stop-color="#948BB2" stop-opacity="0"/>
<stop offset="1" stop-color="#3E3445"/>
</linearGradient>
</defs>
</svg>
